<?xml version="1.0" standalone="no"?>
<!DOCTYPE svg PUBLIC "-//W3C//DTD SVG 20010904//EN"
 "http://www.w3.org/TR/2001/REC-SVG-20010904/DTD/svg10.dtd">
<svg version="1.0" xmlns="http://www.w3.org/2000/svg"
 width="406" height="58">

<g transform="translate(0.000000,600.000000) scale(0.100000,-0.100000)"
fill="#000000" stroke="none">
<path d="M1988 4196 c-74 -27 -160 -96 -219 -174 -50 -68 -166 -322 -191 -421
-51 -201 -60 -286 -59 -515 0 -104 -1 -187 -3 -185 -2 2 -20 45 -41 94 -20 50
-43 104 -51 122 -8 17 -14 35 -14 39 0 5 -26 63 -59 129 -159 325 -205 428
-236 525 -17 50 -59 110 -78 110 -4 0 -20 -9 -36 -21 l-28 -20 13 -72 c7 -40
28 -139 47 -222 42 -179 53 -253 67 -447 24 -353 7 -486 -81 -599 -45 -57
-154 -77 -239 -43 -54 22 -144 123 -161 181 -10 38 -9 52 7 99 30 90 61 108
143 83 24 -7 61 -49 67 -77 10 -47 13 -52 29 -46 21 9 45 57 45 92 0 41 -72
107 -128 117 -49 8 -68 -1 -135 -64 -93 -86 -124 -165 -101 -255 15 -58 44
-101 102 -150 99 -82 245 -76 366 14 165 123 200 271 170 713 -12 176 -17 223
-31 271 -3 11 -1 16 5 12 11 -6 58 -102 78 -161 8 -21 23 -47 34 -57 11 -11
20 -26 20 -36 0 -9 9 -30 20 -47 11 -16 20 -36 20 -43 0 -7 11 -37 23 -65 13
-29 30 -67 38 -84 8 -18 17 -33 20 -33 3 0 11 -19 18 -42 15 -48 74 -198 132
-331 21 -48 41 -104 45 -123 6 -32 9 -35 33 -29 14 3 34 14 45 24 15 15 16 22
6 41 -19 35 -38 109 -50 195 -6 44 -15 96 -20 115 -28 109 -32 568 -6 649 9
25 20 73 25 106 13 81 63 221 102 285 5 8 14 26 20 40 64 150 137 242 202 254
62 12 137 -51 137 -115 0 -69 -37 -119 -88 -119 -19 0 -42 -18 -42 -32 0 -13
39 -9 73 8 60 31 125 84 135 111 25 65 25 92 -2 138 -15 25 -34 49 -44 54 -33
18 -106 21 -144 7z"/>
<path d="M6370 4024 c-36 -12 -137 -66 -162 -86 -21 -17 -25 -27 -18 -38 8
-13 17 -11 60 13 98 53 104 40 105 -203 0 -165 -8 -385 -20 -555 -2 -33 -7
-140 -11 -237 -8 -221 4 -266 78 -304 23 -12 33 -11 83 5 60 20 115 60 66 48
-44 -11 -87 16 -106 67 -15 38 -17 65 -11 163 3 65 8 177 11 248 3 72 10 224
17 340 10 202 7 461 -8 498 -5 14 -55 49 -66 46 -2 0 -10 -3 -18 -5z"/>
<path d="M4578 3987 c-31 -18 -69 -42 -85 -54 -26 -20 -27 -22 -9 -29 13 -5
33 0 57 14 48 28 75 28 91 0 20 -37 17 -405 -7 -768 -14 -213 -16 -410 -4
-450 14 -45 59 -90 92 -90 22 0 77 16 115 33 30 14 28 29 -3 21 -54 -13 -102
47 -107 132 -2 49 9 375 17 509 4 71 14 307 19 445 4 125 -10 232 -35 253 -31
25 -76 20 -141 -16z"/>
<path d="M5839 3685 c-118 -43 -188 -108 -276 -256 -60 -101 -133 -264 -133
-298 0 -10 -6 -25 -13 -35 -11 -15 -15 -15 -24 -4 -13 17 -50 125 -70 208 -8
36 -19 69 -23 73 -9 10 -84 -26 -97 -45 -8 -13 -41 -89 -73 -168 -10 -25 -24
-58 -31 -75 l-12 -30 -13 40 c-7 22 -13 56 -13 76 -1 20 -15 79 -31 132 -27
84 -35 99 -65 117 -29 18 -40 20 -72 11 -50 -14 -99 -45 -113 -71 -11 -20 -9
-21 37 -15 26 3 53 2 59 -2 34 -24 63 -118 94 -305 30 -181 35 -188 101 -144
35 24 79 101 127 221 11 27 24 51 29 52 4 2 14 -15 21 -38 7 -22 37 -95 66
-162 29 -67 56 -130 60 -140 6 -18 8 -17 43 4 59 35 66 45 69 97 4 81 61 294
101 378 21 44 55 107 76 140 20 34 37 64 37 67 0 4 11 22 25 42 51 76 113 101
159 64 l28 -22 36 21 c94 53 4 109 -109 67z"/>
<path d="M2999 3571 c-16 -13 -34 -17 -59 -14 -93 12 -212 -76 -297 -222 -71
-120 -68 -119 -88 -50 -28 96 -78 140 -129 113 -31 -15 -96 -80 -96 -95 0 -17
20 -16 44 2 79 60 105 -42 141 -541 2 -34 11 -54 24 -54 4 0 27 17 50 38 l43
39 -11 55 c-12 56 -9 147 9 262 5 32 9 61 8 65 -5 23 54 164 79 189 7 7 13 17
13 22 0 5 16 25 37 45 30 29 43 35 78 35 72 0 82 -42 26 -105 -33 -36 -64 -85
-58 -91 9 -9 119 91 154 140 20 28 38 53 40 55 2 2 11 -3 21 -12 10 -10 29
-17 41 -17 23 0 91 46 91 61 0 4 -16 16 -35 25 -20 9 -45 29 -56 45 -24 34
-38 36 -70 10z"/>
<path d="M3778 3417 c-36 -17 -68 -47 -68 -65 0 -20 -83 -164 -134 -232 -23
-30 -49 -67 -59 -82 -22 -35 -62 -38 -70 -5 -3 12 -7 65 -8 117 -1 54 -9 116
-18 145 -14 43 -22 53 -60 72 l-43 22 -52 -20 c-28 -11 -58 -27 -66 -35 -12
-12 -11 -14 13 -14 40 0 84 -26 101 -58 9 -17 19 -85 25 -171 5 -79 13 -147
18 -152 5 -5 22 -11 38 -14 48 -10 182 82 234 160 23 33 52 74 66 90 l25 30 1
-27 c1 -16 3 -43 4 -60 2 -18 3 -129 4 -247 2 -339 -25 -449 -131 -533 -47
-37 -103 -46 -190 -29 -95 17 -158 75 -158 146 0 32 29 107 46 121 8 6 14 19
14 28 0 67 -122 -74 -141 -164 -14 -66 0 -108 52 -149 96 -78 220 -82 355 -11
216 112 259 209 258 580 -3 625 1 582 -56 557z"/>
<path d="M5883 3285 c-26 -12 -74 -50 -106 -83 -87 -91 -129 -199 -113 -287 6
-30 14 -39 43 -51 22 -10 43 -12 58 -7 30 10 144 108 176 150 38 51 49 50 49
-8 0 -79 28 -186 53 -204 38 -27 81 -19 136 25 57 45 68 69 21 45 -76 -40
-104 31 -105 263 l0 153 -23 -6 c-12 -3 -31 -1 -41 4 -10 6 -37 14 -59 19 -34
8 -49 6 -89 -13z m55 -85 c17 -11 32 -26 32 -34 0 -21 -65 -125 -110 -174 -33
-38 -43 -43 -66 -38 -25 7 -26 9 -22 69 5 69 27 123 68 167 33 35 53 37 98 10z"/>
<path d="M2000 3278 c-25 -14 -73 -57 -107 -96 -50 -57 -66 -84 -84 -142 -25
-82 -21 -136 12 -162 53 -44 124 -9 232 114 30 34 58 61 61 58 3 -3 8 -37 12
-75 10 -108 30 -170 60 -184 42 -19 65 -13 121 30 53 41 75 74 29 43 -34 -22
-68 -14 -84 19 -30 61 -43 231 -27 346 l7 53 -31 -7 c-19 -4 -37 -2 -45 4 -8
7 -36 14 -62 17 -40 5 -58 1 -94 -18z m59 -69 c43 -15 54 -38 35 -75 -8 -16
-19 -31 -23 -34 -5 -3 -18 -23 -29 -45 -11 -22 -38 -56 -59 -76 -30 -30 -42
-35 -59 -29 -12 5 -24 20 -28 34 -9 37 21 144 52 186 41 55 53 59 111 39z"/>
<path d="M2994 3286 c-46 -14 -93 -45 -94 -61 0 -5 17 -10 37 -10 59 0 65 -21
60 -212 -4 -155 -3 -163 17 -182 37 -34 70 -36 125 -5 28 15 51 33 51 41 0 11
-4 11 -20 1 -17 -11 -23 -10 -39 7 -18 18 -20 36 -22 184 -2 178 -9 225 -39
241 -23 12 -24 12 -76 -4z"/>
<path d="M4163 3280 c-56 -29 -150 -131 -180 -197 -14 -30 -27 -81 -30 -113
-5 -53 -3 -61 20 -84 35 -35 82 -35 128 1 19 15 63 58 99 95 36 37 69 68 73
68 4 0 7 -24 7 -52 1 -102 29 -190 66 -207 41 -18 67 -13 109 24 22 19 43 35
46 35 4 0 9 7 13 15 5 13 2 13 -25 -1 -47 -24 -72 -12 -87 38 -29 105 -36 242
-16 347 7 33 6 33 -25 26 -19 -4 -37 -2 -45 4 -8 7 -36 14 -62 17 -38 4 -59 0
-91 -16z m63 -76 c27 -13 34 -22 34 -44 0 -15 -7 -33 -16 -41 -8 -7 -24 -29
-34 -48 -10 -20 -38 -57 -62 -83 -41 -44 -45 -46 -68 -35 -21 11 -25 20 -24
57 1 65 19 119 55 168 34 47 59 53 115 26z"/>
<path d="M6809 3277 c-24 -13 -72 -56 -106 -95 -50 -57 -66 -84 -84 -142 -34
-114 -10 -184 65 -184 40 0 101 45 187 138 l57 61 6 -70 c7 -77 30 -173 45
-188 5 -5 29 -11 53 -14 36 -4 48 0 73 22 17 14 41 35 53 46 31 27 22 35 -18
14 -59 -31 -80 -3 -100 130 -12 84 -12 184 -1 244 l9 43 -29 -6 c-15 -3 -44 1
-63 9 -50 21 -96 19 -147 -8z m67 -73 c19 -9 35 -21 35 -28 3 -24 -3 -42 -21
-61 -10 -11 -25 -36 -35 -55 -22 -45 -84 -110 -105 -110 -41 0 -51 49 -25 134
25 82 65 135 103 136 8 0 29 -7 48 -16z"/>
</g>
</svg>
