<svg width="486" height="107" viewBox="0 0 486 107" fill="none" xmlns="http://www.w3.org/2000/svg">
<path d="M55.25 46.875C55.25 47.9583 55.0208 48.8125 54.5625 49.4375C54.1042 50.0208 53.5625 50.5625 52.9375 51.0625C52.3542 51.5208 51.75 52 51.125 52.5C50.5417 52.9583 50.1042 53.5833 49.8125 54.375C49.7292 54.5833 49.5208 54.8125 49.1875 55.0625C48.8542 55.2708 48.4792 55.4792 48.0625 55.6875C47.6458 55.8958 47.25 56.0833 46.875 56.25C46.5 56.375 46.2292 56.4375 46.0625 56.4375L42.9375 58.1875L42.5 57.875C41.75 58.5833 40.9167 59.125 40 59.5H39.875L39.375 59.1875L39.3125 59.25C38.9792 59.375 38.6458 59.3958 38.3125 59.3125C38.0208 59.2708 37.7083 59.1667 37.375 59C37.0833 58.875 36.7917 58.7292 36.5 58.5625C36.2083 58.3542 35.9167 58.2083 35.625 58.125L35.5625 58.0625C34.8542 57.3542 34.3125 56.6458 33.9375 55.9375C33.5625 55.2292 33.375 54.3542 33.375 53.3125C33.375 52.1458 33.5208 50.9792 33.8125 49.8125C34.1458 48.6458 34.5208 47.5208 34.9375 46.4375C35.0208 46.3125 35.0833 46.1875 35.125 46.0625C35.2083 45.8958 35.2708 45.7292 35.3125 45.5625C35.4792 45.1458 35.5833 44.7292 35.625 44.3125C35.7083 43.8542 35.7708 43.3958 35.8125 42.9375C35.8958 41.8958 36.0625 40.9583 36.3125 40.125C36.6042 39.2917 37.1667 38.5208 38 37.8125L38.125 37.75L38 37.6875C37.6667 37.3125 37.5417 37.0208 37.625 36.8125C37.7083 36.6042 37.8333 36.4167 38 36.25C38.1667 36.0833 38.2917 35.8958 38.375 35.6875C38.5 35.4375 38.4167 35.0833 38.125 34.625L38.6875 34.5625L38.75 34.5C39.0833 33.9583 39.2917 33.3333 39.375 32.625C39.5 31.9167 39.6042 31.1875 39.6875 30.4375C39.7708 29.6458 39.9375 28.875 40.1875 28.125C40.4375 27.3333 40.8958 26.625 41.5625 26V25.9375C41.3542 25.4792 41.2917 25.0625 41.375 24.6875C41.4583 24.3125 41.5833 23.9583 41.75 23.625C41.9167 23.2917 42.0833 22.9583 42.25 22.625C42.4167 22.25 42.5 21.8542 42.5 21.4375C42.5 21.1458 42.4375 20.9167 42.3125 20.75C42.1875 20.5417 42.0833 20.3125 42 20.0625C42.375 19.6875 42.625 19.2917 42.75 18.875C42.875 18.4167 42.9583 17.9583 43 17.5C43.0417 17 43.1042 16.5208 43.1875 16.0625C43.2708 15.5625 43.4792 15.1042 43.8125 14.6875H43.875C43.8333 14.3958 43.8333 14.0833 43.875 13.75C43.9583 13.4167 44 13.1042 44 12.8125C44.0417 12.1875 44.0833 11.5625 44.125 10.9375C44.2083 10.3125 44.3958 9.70833 44.6875 9.125H44.75C44.6667 8.875 44.625 8.64583 44.625 8.4375C44.625 8.1875 44.6042 7.9375 44.5625 7.6875C44.5208 7.4375 44.4375 7.1875 44.3125 6.9375C44.2292 6.6875 44.0417 6.45833 43.75 6.25V6.1875C43.6667 6.22917 43.5 6.27083 43.25 6.3125C43 6.3125 42.8125 6.3125 42.6875 6.3125C41.9375 7.02083 41.25 7.79167 40.625 8.625C40 9.45833 39.3958 10.3125 38.8125 11.1875C38.2708 12.0208 37.7083 12.875 37.125 13.75C36.5833 14.5833 35.9792 15.375 35.3125 16.125H35.25C35.25 16.2083 35.25 16.2917 35.25 16.375C35.2917 16.4583 35.3125 16.5417 35.3125 16.625C35.3542 17.5 34.9167 17.9375 34 17.9375C32.5417 19.7708 31.625 21.875 31.25 24.25C31.1667 24.1667 31.0833 24.1042 31 24.0625C30.9167 23.9792 30.8333 23.8958 30.75 23.8125L30.6875 23.9375C30.0625 24.9375 29.3542 25.9583 28.5625 27C27.8125 28 27.0625 29.0208 26.3125 30.0625C25.5625 31.0625 24.875 32.1042 24.25 33.1875C23.625 34.2708 23.1458 35.3958 22.8125 36.5625V36.625L22.75 36.6875C22.2917 36.9792 21.9167 37.2292 21.625 37.4375C21.375 37.6458 21.1458 37.875 20.9375 38.125C20.7292 38.375 20.5417 38.6667 20.375 39C20.2083 39.2917 20.0208 39.6667 19.8125 40.125C19.5208 40.7083 19.2083 41.2708 18.875 41.8125C18.5417 42.3542 18.125 42.8542 17.625 43.3125C17.375 44.1458 17.0833 44.9792 16.75 45.8125C16.4583 46.6458 16.0833 47.4167 15.625 48.125C15.5 48.3333 15.3333 48.625 15.125 49C14.9167 49.3333 14.7083 49.6875 14.5 50.0625C14.3333 50.4375 14.1875 50.8125 14.0625 51.1875C13.9375 51.5625 13.8958 51.875 13.9375 52.125C13.6042 52.4583 13.3542 52.8542 13.1875 53.3125C13.0208 53.7292 12.875 54.1667 12.75 54.625C12.5833 55.2917 12.3958 55.8333 12.1875 56.25C12.0208 56.625 11.6667 57.0417 11.125 57.5L11.0625 57.5625L11.125 57.625C11.375 58.5 11.3958 59.1667 11.1875 59.625C10.9792 60.125 10.6667 60.5417 10.25 60.875C9.83333 61.25 9.35417 61.6042 8.8125 61.9375C8.27083 62.2708 7.8125 62.7292 7.4375 63.3125C6.9375 62.9792 6.52083 62.4583 6.1875 61.75C5.85417 61.0833 5.58333 60.4583 5.375 59.875C4.95833 58.75 4.97917 57.8125 5.4375 57.0625C5.85417 56.3125 6.375 55.625 7 55C7.58333 54.375 8.125 53.75 8.625 53.125C9.08333 52.4583 9.16667 51.6875 8.875 50.8125C9.16667 50.8125 9.45833 50.75 9.75 50.625C10.0417 50.4583 10.3125 50.25 10.5625 50C10.8125 49.75 11.0208 49.4792 11.1875 49.1875C11.3542 48.8542 11.4583 48.5417 11.5 48.25C11.5417 47.9167 11.3542 47.6042 10.9375 47.3125C10.5625 47.0208 10.2292 46.7917 9.9375 46.625L10 46.5C10.0417 45.7083 10.2292 45.1042 10.5625 44.6875C10.8958 44.2292 11.2708 43.8333 11.6875 43.5C12.1042 43.1667 12.4792 42.7917 12.8125 42.375C13.1458 41.9583 13.3125 41.375 13.3125 40.625C13.5625 39.9167 13.8125 39.2083 14.0625 38.5C14.3542 37.7917 14.6667 37.0833 15 36.375C15.2917 35.7917 15.6458 35.0625 16.0625 34.1875C16.4792 33.2708 16.6875 32.5208 16.6875 31.9375C16.6875 30.4792 16.8542 29.1667 17.1875 28C17.5625 26.7917 18.3958 25.75 19.6875 24.875L19.75 24.8125L19.6875 24.75C19.4792 23.9583 19.3958 23.3125 19.4375 22.8125C19.5208 22.3125 19.6667 21.6667 19.875 20.875C20.0833 20.0417 20.1875 19.2917 20.1875 18.625C20.1875 18.5 20.1667 18.375 20.125 18.25C20.125 18.125 20.125 18 20.125 17.875C20.25 17.7083 20.4583 17.5417 20.75 17.375C21.0833 17.1667 21.3542 16.9792 21.5625 16.8125C21.8125 16.6042 21.9583 16.3958 22 16.1875C22.0417 15.9375 21.875 15.6875 21.5 15.4375L21.4375 15.3125C21.3958 15.1042 21.5 14.6875 21.75 14.0625C22.0417 13.4375 22.3542 12.7917 22.6875 12.125C23.0625 11.4167 23.4167 10.7708 23.75 10.1875C24.125 9.60417 24.3958 9.25 24.5625 9.125L24.4375 9.0625C24.0625 8.89583 23.6458 8.875 23.1875 9C22.7292 9.08333 22.2708 9.25 21.8125 9.5C21.3542 9.75 20.9167 10.0208 20.5 10.3125C20.0833 10.5625 19.6875 10.75 19.3125 10.875L19.25 10.9375C19 11.7292 18.6667 12.2083 18.25 12.375C17.8333 12.5 17.375 12.5417 16.875 12.5C16.4167 12.4167 15.9375 12.3333 15.4375 12.25C14.9792 12.1667 14.5833 12.2708 14.25 12.5625L14.0625 12.625L13.75 12.4375L13.6875 12.5C13.6458 12.7083 13.5208 12.8542 13.3125 12.9375C13.0208 13.0625 12.75 13.1042 12.5 13.0625C12.25 12.9792 12.0208 12.9167 11.8125 12.875C11.6042 12.8333 11.3958 12.8542 11.1875 12.9375C11.0208 13.0208 10.875 13.2708 10.75 13.6875C10.0417 13.4375 9.3125 13.375 8.5625 13.5C7.8125 13.5833 7.04167 13.6667 6.25 13.75C5.41667 13.8333 4.60417 13.8125 3.8125 13.6875C2.97917 13.5208 2.1875 13.0417 1.4375 12.25H1.375L0.6875 10.25C1.52083 10 2.33333 10.0417 3.125 10.375C3.91667 10.7083 4.66667 11.0208 5.375 11.3125C6.08333 11.6042 6.77083 11.7708 7.4375 11.8125C8.0625 11.8125 8.66667 11.375 9.25 10.5L9.3125 10.375H9.5C10.0833 10.375 10.625 10.2917 11.125 10.125C11.6667 9.91667 12.1875 9.72917 12.6875 9.5625C13.2292 9.35417 13.7708 9.20833 14.3125 9.125C14.8542 9 15.4167 9.04167 16 9.25L16.0625 9.3125C16.3542 9.0625 16.625 8.77083 16.875 8.4375C17.125 8.10417 17.25 7.75 17.25 7.375C17.5833 7.375 17.9792 7.33333 18.4375 7.25C18.8958 7.16667 19.25 7.22917 19.5 7.4375H19.5625C19.8958 7.0625 20.2917 6.75 20.75 6.5C21.2083 6.25 21.6875 6.02083 22.1875 5.8125C22.6875 5.60417 23.1875 5.39583 23.6875 5.1875C24.1875 4.97917 24.6458 4.72917 25.0625 4.4375C25.4792 4.14583 25.7083 3.83333 25.75 3.5C25.8333 3.16667 25.875 2.85417 25.875 2.5625C25.875 2.22917 25.9375 1.9375 26.0625 1.6875C26.2292 1.4375 26.6042 1.27083 27.1875 1.1875C27.4792 1.14583 27.8125 1.02083 28.1875 0.8125C28.6042 0.604167 28.9792 0.458333 29.3125 0.375C29.6875 0.25 30.0208 0.25 30.3125 0.375C30.6042 0.458333 30.8333 0.770833 31 1.3125V1.375C31.1667 1.625 31.2083 1.85417 31.125 2.0625C31.0833 2.27083 31.0208 2.45833 30.9375 2.625C30.8958 2.79167 30.8542 2.9375 30.8125 3.0625C30.8125 3.1875 30.9167 3.3125 31.125 3.4375H31.25C31.25 3.47917 31.2917 3.66667 31.375 4C31.4583 4.29167 31.5 4.5 31.5 4.625C31.5 5.08333 31.375 5.5 31.125 5.875C30.875 6.20833 30.6042 6.54167 30.3125 6.875C30.0625 7.16667 29.8333 7.5 29.625 7.875C29.4583 8.25 29.4375 8.70833 29.5625 9.25L29.625 9.3125L26.75 15.125V15.1875C27 15.6458 27 16.0417 26.75 16.375C26.5 16.6667 26.2083 16.9375 25.875 17.1875C25.5833 17.3958 25.3333 17.625 25.125 17.875C24.9583 18.125 25.0625 18.4167 25.4375 18.75C25.4375 18.75 25.4792 18.7708 25.5625 18.8125C25.2292 19.7708 24.7708 20.7083 24.1875 21.625C23.6458 22.5 23.375 23.4375 23.375 24.4375C23.375 24.5625 23.3958 24.7292 23.4375 24.9375C23.4792 25.1458 23.5 25.2917 23.5 25.375L23.4375 25.5C23.1458 25.9583 22.9583 26.3333 22.875 26.625C22.8333 26.9167 22.7917 27.3125 22.75 27.8125C22.75 28.0625 22.7083 28.5 22.625 29.125C22.5417 29.7083 22.3958 30.0833 22.1875 30.25C22.3542 30.4167 22.4792 30.5 22.5625 30.5C22.6458 30.5417 22.8125 30.4792 23.0625 30.3125C23.3542 30.1458 23.5417 30.0208 23.625 29.9375V29.875C23.7917 29 24.125 28.2083 24.625 27.5C25.125 26.75 25.6458 26.0417 26.1875 25.375C26.7708 24.7083 27.2917 24.0625 27.75 23.4375C28.25 22.8125 28.5417 22.1458 28.625 21.4375V21.25C29.1667 21.25 29.5208 21.1458 29.6875 20.9375C29.8958 20.6875 30 20.4167 30 20.125C30.0417 19.7917 30.0625 19.4792 30.0625 19.1875C30.0625 18.8958 30.1667 18.6875 30.375 18.5625H30.4375C30.8542 18.4792 31.125 18.3125 31.25 18.0625C31.4167 17.8125 31.5208 17.5417 31.5625 17.25C31.6458 16.9167 31.7292 16.6042 31.8125 16.3125C31.8958 15.9792 32.0833 15.6875 32.375 15.4375H32.4375L32.5 15.375C33.0417 15.2083 33.4167 14.9167 33.625 14.5C33.875 14.0833 34.0833 13.6458 34.25 13.1875C34.4583 12.6875 34.6667 12.2292 34.875 11.8125C35.125 11.3958 35.5417 11.125 36.125 11H36.1875C36.1458 10.7917 36.2917 10.4792 36.625 10.0625C36.9583 9.60417 37.1667 9.1875 37.25 8.8125L37.6875 9.1875C37.7292 9.14583 37.75 9.08333 37.75 9C38.2083 7.625 38.9792 6.39583 40.0625 5.3125C41.1875 4.1875 42.25 3.14583 43.25 2.1875C43.4167 2.22917 43.625 2.16667 43.875 2C44.1667 1.83333 44.4583 1.66667 44.75 1.5C45.0833 1.33333 45.4375 1.22917 45.8125 1.1875C46.1875 1.10417 46.5833 1.1875 47 1.4375C47.1667 1.64583 47.3958 1.95833 47.6875 2.375C47.9792 2.75 48.2708 3.14583 48.5625 3.5625C48.8958 3.97917 49.1667 4.39583 49.375 4.8125C49.5833 5.22917 49.6667 5.5625 49.625 5.8125C49.4167 5.9375 49.2708 6.3125 49.1875 6.9375C49.1042 7.5625 49.0208 8.25 48.9375 9C48.8958 9.75 48.8333 10.4375 48.75 11.0625C48.6667 11.6875 48.5417 12.0625 48.375 12.1875C48.4583 12.6458 48.5417 13.1042 48.625 13.5625C48.7083 13.9792 48.5833 14.3542 48.25 14.6875L48.125 14.75C48.2917 14.9167 48.375 15.125 48.375 15.375C48.4167 15.625 48.4583 15.8542 48.5 16.0625C48.1667 16.0625 47.9583 16.1042 47.875 16.1875C47.7917 16.2292 47.75 16.3125 47.75 16.4375C47.75 16.5625 47.75 16.7292 47.75 16.9375C47.75 17.1042 47.625 17.2917 47.375 17.5L47.0625 24.625C46.7292 24.5833 46.4583 24.7292 46.25 25.0625C46.0417 25.3542 45.8333 25.6042 45.625 25.8125C45.625 27.1042 45.4583 28.2917 45.125 29.375C44.7917 30.4167 44.3958 31.5208 43.9375 32.6875C43.8125 32.9792 43.6458 33.375 43.4375 33.875C43.2708 34.375 43.0833 34.8958 42.875 35.4375C42.7083 35.9792 42.5625 36.5 42.4375 37C42.3542 37.5 42.3333 37.8958 42.375 38.1875H42.25C42.125 38.4792 41.8958 39.0833 41.5625 40C41.2292 40.9167 40.875 41.8958 40.5 42.9375C40.1667 43.9375 39.8542 44.8958 39.5625 45.8125C39.2708 46.6875 39.125 47.2708 39.125 47.5625H39.1875L39.375 47.8125C39.375 47.8958 39.3958 47.9583 39.4375 48C39.4375 48.2083 39.3542 48.4167 39.1875 48.625C39.0625 48.7917 38.9583 48.9792 38.875 49.1875C38.875 50.1042 38.7083 50.9583 38.375 51.75C38.0417 52.5417 37.875 53.375 37.875 54.25C38.2083 54.4583 38.5208 54.6875 38.8125 54.9375C39.1458 55.1875 39.4792 55.4167 39.8125 55.625C39.9375 55.2917 40.125 55.0625 40.375 54.9375C40.625 54.8125 40.875 54.7083 41.125 54.625C41.4167 54.5 41.6458 54.3542 41.8125 54.1875C42.0208 54.0208 42.125 53.75 42.125 53.375L42.25 53.3125C42.5 53.1875 42.8125 53.0833 43.1875 53C43.5625 52.875 43.9375 52.7708 44.3125 52.6875C44.7292 52.5625 45.125 52.4375 45.5 52.3125C45.875 52.1875 46.1667 52.0625 46.375 51.9375C46.9583 51.6042 47.7083 51.2292 48.625 50.8125C49.5417 50.3542 50.3333 50.0417 51 49.875C51.5417 49.75 51.8958 49.4583 52.0625 49C52.2708 48.5417 52.4583 48.1042 52.625 47.6875C52.7917 47.2708 53.0417 46.9583 53.375 46.75C53.7083 46.5 54.2917 46.5208 55.125 46.8125L55.25 46.875ZM98 52.4375C97.4167 53.4375 96.9583 54.25 96.625 54.875C96.3333 55.4583 96.0208 55.9583 95.6875 56.375C95.3958 56.75 95.0417 57.1042 94.625 57.4375C94.25 57.7292 93.7083 58.1042 93 58.5625C92.5417 58.9792 92.0833 59.3333 91.625 59.625C91.25 59.9167 90.875 60.1667 90.5 60.375C90.1667 60.5833 89.8958 60.6875 89.6875 60.6875C89.6042 60.6875 89.5208 60.6667 89.4375 60.625C89.3542 60.625 89.2708 60.625 89.1875 60.625C88.9375 60.625 88.6875 60.625 88.4375 60.625C88.2292 60.6667 88.0417 60.5208 87.875 60.1875C87.75 60.3125 87.6458 60.4583 87.5625 60.625C87.4792 60.7917 87.3958 60.9375 87.3125 61.0625C87.2292 61.2292 87.1042 61.3542 86.9375 61.4375C86.8125 61.5208 86.625 61.5208 86.375 61.4375L86.0625 61.0625L85.125 61.875C83.9583 61.2917 82.8333 60.7917 81.75 60.375C80.7083 60 79.7708 59.5417 78.9375 59C78.1042 58.4583 77.3958 57.7708 76.8125 56.9375C76.2292 56.0625 75.8125 54.875 75.5625 53.375C75.3542 53.125 75.125 52.9167 74.875 52.75C74.625 52.5417 74.3333 52.4792 74 52.5625C73.5833 53.2708 73.0833 53.875 72.5 54.375C71.9167 54.875 71.3333 55.4167 70.75 56C70.5417 56.2083 70.375 56.4375 70.25 56.6875C70.125 56.9375 69.9583 57.1667 69.75 57.375C69.4167 57.75 69.0208 58.0208 68.5625 58.1875C68.1042 58.3125 67.6458 58.4375 67.1875 58.5625C66.7292 58.6875 66.2917 58.8958 65.875 59.1875C65.5 59.4792 65.2292 59.9792 65.0625 60.6875C64.5625 60.3958 64.0625 60.3125 63.5625 60.4375C63.1875 60.5208 62.7917 60.6042 62.375 60.6875C61.9583 60.8125 61.5417 60.875 61.125 60.875C60.75 60.9167 60.375 60.875 60 60.75C59.625 60.625 59.2917 60.3542 59 59.9375C58.4167 60.1875 57.875 60.1667 57.375 59.875C56.875 59.625 56.3958 59.2708 55.9375 58.8125C55.5208 58.3125 55.1042 57.7917 54.6875 57.25C54.2708 56.7083 53.875 56.3125 53.5 56.0625C53.25 55.3958 53.2708 54.8333 53.5625 54.375C53.8125 53.875 54.1042 53.4167 54.4375 53C54.7292 52.5417 54.9375 52.1042 55.0625 51.6875C55.1875 51.2292 55 50.6875 54.5 50.0625C54.9167 49.4375 55.2917 48.7917 55.625 48.125C55.9583 47.4167 56.2917 46.7292 56.625 46.0625C57 45.3542 57.375 44.6875 57.75 44.0625C58.1667 43.3958 58.6667 42.8333 59.25 42.375C59 42.0833 58.875 41.8125 58.875 41.5625C58.875 41.2708 58.9375 41 59.0625 40.75C59.1875 40.4583 59.3333 40.1875 59.5 39.9375C59.6667 39.6458 59.7917 39.375 59.875 39.125L61.6875 38.25L61.25 36.75C61.7083 36.8333 62.0417 36.8125 62.25 36.6875C62.5 36.5625 62.6667 36.375 62.75 36.125C62.875 35.875 62.9583 35.6042 63 35.3125C63.0833 34.9792 63.1875 34.6875 63.3125 34.4375C63.5208 34.0625 63.8333 33.7917 64.25 33.625C65.125 32.9583 65.9792 32.25 66.8125 31.5C67.6875 30.75 68.5417 30.0208 69.375 29.3125C70.25 28.6042 71.1458 27.9375 72.0625 27.3125C72.9792 26.6458 73.9792 26.0833 75.0625 25.625C75.8125 25.75 76.3958 25.9792 76.8125 26.3125C77.2708 26.6458 77.6042 27.0417 77.8125 27.5C78.0625 27.9583 78.25 28.4792 78.375 29.0625C78.5 29.6042 78.625 30.1458 78.75 30.6875C78.9583 31.3958 79.2083 32 79.5 32.5C79.7917 33 80.2917 33.4167 81 33.75C80.4167 34.75 80.1875 35.75 80.3125 36.75C80.4375 37.7083 80.5625 38.7292 80.6875 39.8125C80.8125 40.8125 80.7917 41.7917 80.625 42.75C80.5 43.7083 79.8958 44.5625 78.8125 45.3125C78.7292 45.6042 78.7083 45.9167 78.75 46.25C78.7917 46.5833 78.8125 46.9167 78.8125 47.25C78.8125 47.5833 78.75 47.8958 78.625 48.1875C78.5 48.4792 78.2708 48.7083 77.9375 48.875C78.3125 49.3333 78.5 49.7917 78.5 50.25C78.5417 50.7083 78.5625 51.1458 78.5625 51.5625C78.6042 51.9792 78.7083 52.3542 78.875 52.6875C79.0833 53.0208 79.5417 53.2708 80.25 53.4375C80.375 53.9792 80.4792 54.3958 80.5625 54.6875C80.6875 54.9375 80.8125 55.1458 80.9375 55.3125C81.1042 55.4792 81.3125 55.6458 81.5625 55.8125C81.8125 55.9375 82.1458 56.1458 82.5625 56.4375C82.8958 56.5208 83.2708 56.5208 83.6875 56.4375C84.1042 56.3542 84.4375 56.4792 84.6875 56.8125C84.8958 56.6042 85.1458 56.5 85.4375 56.5C85.7292 56.4583 86 56.4583 86.25 56.5L87.0625 57.875C87.5208 57.5417 88.0417 57.25 88.625 57C89.2083 56.75 89.7708 56.5417 90.3125 56.375C90.9375 56.2083 91.5625 56.0625 92.1875 55.9375L98 52.4375ZM74 31.0625C73.625 31.3958 73.1667 31.7292 72.625 32.0625C72.0833 32.3958 71.5417 32.75 71 33.125C70.5 33.5 70.0625 33.9167 69.6875 34.375C69.3125 34.7917 69.0833 35.2917 69 35.875C68.0417 36.0417 67.375 36.4375 67 37.0625C66.625 37.6875 66.3125 38.375 66.0625 39.125C65.8125 39.875 65.5417 40.625 65.25 41.375C64.9583 42.0833 64.4375 42.6458 63.6875 43.0625C63.4375 43.2292 63.2083 43.3125 63 43.3125C63.0417 43.3125 62.9167 43.3958 62.625 43.5625C62.1667 43.8958 61.7708 44.3125 61.4375 44.8125C61.1042 45.3125 60.8125 45.8542 60.5625 46.4375C60.3542 47.0208 60.1458 47.625 59.9375 48.25C59.7708 48.8333 59.6042 49.375 59.4375 49.875C58.8542 49.9583 58.4167 50.0833 58.125 50.25C57.8333 50.4167 57.6458 50.6042 57.5625 50.8125C57.5208 50.9792 57.5417 51.1875 57.625 51.4375C57.7083 51.6875 57.8333 51.9583 58 52.25C58.1667 52.5 58.3333 52.7917 58.5 53.125C58.7083 53.4583 58.875 53.7917 59 54.125C59.125 54.4583 59.1875 54.7917 59.1875 55.125C59.2292 55.4583 59.1458 55.7708 58.9375 56.0625C59.5208 56.5208 60.0833 56.625 60.625 56.375C61.1667 56.0833 61.6667 55.7708 62.125 55.4375C62.2917 55.3125 62.4583 55.1875 62.625 55.0625C62.8333 54.8958 63.0417 54.7708 63.25 54.6875C64.2083 54.8958 65.0833 54.8333 65.875 54.5C66.6667 54.1667 67.3958 53.7083 68.0625 53.125C68.7292 52.5417 69.375 51.9167 70 51.25C70.625 50.5833 71.25 50 71.875 49.5L71.375 49C72.125 48.7917 72.6458 48.5208 72.9375 48.1875C73.2708 47.8125 73.4792 47.3958 73.5625 46.9375C73.6458 46.4792 73.6458 46 73.5625 45.5C73.4792 44.9583 73.4167 44.3958 73.375 43.8125C73.3333 43.4792 73.3125 43.1667 73.3125 42.875C73.3542 42.5417 73.4375 42.2083 73.5625 41.875C73.2292 40.9167 73.1667 40 73.375 39.125C73.625 38.25 73.9375 37.4167 74.3125 36.625C74.7292 35.7917 75.125 34.9583 75.5 34.125C75.875 33.2917 76.0625 32.4167 76.0625 31.5L74 31.0625ZM140.562 46.625C139.604 47.0833 138.958 47.6458 138.625 48.3125C138.292 48.9792 138.021 49.6667 137.812 50.375C137.646 51.0833 137.417 51.7708 137.125 52.4375C136.875 53.0625 136.312 53.5833 135.438 54C135.229 54.75 134.812 55.2708 134.188 55.5625C133.604 55.8542 132.979 56.125 132.312 56.375C131.646 56.5833 131.042 56.875 130.5 57.25C130 57.625 129.75 58.2708 129.75 59.1875C128.917 59.6458 128 60.0625 127 60.4375C126.042 60.8125 125.021 61.0833 123.938 61.25C122.896 61.4583 121.854 61.5417 120.812 61.5C119.771 61.4583 118.792 61.25 117.875 60.875C117.25 60.5833 116.646 60.2083 116.062 59.75C115.854 59.5833 115.646 59.4375 115.438 59.3125C115.271 59.2292 115.083 59.0833 114.875 58.875C114.375 58.375 113.958 57.7917 113.625 57.125C113.292 56.4583 113.021 55.75 112.812 55C112.604 54.25 112.438 53.5 112.312 52.75C112.188 52 112.083 51.2917 112 50.625L114.312 44.375C113.104 43.4167 112.125 42.3125 111.375 41.0625C110.625 39.7708 109.708 38.5833 108.625 37.5C108.417 37.7917 108.146 38.0417 107.812 38.25C107.479 38.4583 107.354 38.7917 107.438 39.25L108.062 39.8125C106.688 41.3125 105.292 43.0208 103.875 44.9375C102.5 46.8125 101.417 48.7083 100.625 50.625C99.7083 50.5833 99.0625 50.8125 98.6875 51.3125C98.3125 51.7708 98 52.3125 97.75 52.9375C97.5 53.5208 97.1875 54.0625 96.8125 54.5625C96.4375 55.0625 95.8125 55.2708 94.9375 55.1875C94.7292 55.6458 94.5208 56.1458 94.3125 56.6875C94.1042 57.1875 93.8542 57.6667 93.5625 58.125C93.2708 58.5833 92.9167 58.9583 92.5 59.25C92.0833 59.5833 91.5625 59.75 90.9375 59.75C90.6042 59.4167 90.4167 59.0625 90.375 58.6875C90.3333 58.3125 90.375 57.9375 90.5 57.5625C90.625 57.1458 90.7917 56.75 91 56.375C91.2083 55.9583 91.3542 55.5625 91.4375 55.1875C91.7708 53.9792 92.375 52.8958 93.25 51.9375C94.125 50.9375 95 49.9583 95.875 49C96.75 48 97.5 46.9583 98.125 45.875C98.75 44.7917 99 43.5208 98.875 42.0625C99.4167 42.0208 99.9583 41.9167 100.5 41.75C101.083 41.5417 101.604 41.2917 102.062 41C102.562 40.6667 102.938 40.2708 103.188 39.8125C103.479 39.3125 103.583 38.7292 103.5 38.0625C103.167 37.8958 102.979 37.6667 102.938 37.375C102.896 37.0417 102.896 36.7083 102.938 36.375C103.854 36.0833 104.583 35.5833 105.125 34.875C105.708 34.125 106.229 33.3333 106.688 32.5C107.146 31.6667 107.583 30.8333 108 30C108.458 29.125 109.042 28.375 109.75 27.75C110.333 28.0833 110.917 28.375 111.5 28.625C112.083 28.8333 112.646 29.125 113.188 29.5C112.812 30 112.583 30.4792 112.5 30.9375C112.417 31.3958 112.375 31.875 112.375 32.375C112.375 32.8333 112.375 33.2917 112.375 33.75C112.375 34.2083 112.25 34.6875 112 35.1875C112.667 35.7708 113.229 36.4583 113.688 37.25C114.146 38.0417 114.729 38.7083 115.438 39.25C115.938 38.875 116.5 38.6875 117.125 38.6875C117.75 38.6458 118.375 38.6458 119 38.6875C119.667 38.6875 120.292 38.6458 120.875 38.5625C121.458 38.4375 121.938 38.0833 122.312 37.5C122.479 37.6667 122.729 37.75 123.062 37.75C123.396 37.75 123.729 37.75 124.062 37.75C124.396 37.75 124.688 37.8125 124.938 37.9375C125.188 38.0208 125.333 38.2083 125.375 38.5C125.417 38.8333 125.396 39.0625 125.312 39.1875C125.271 39.3125 125.208 39.5208 125.125 39.8125C125.042 40.1458 125.021 40.3125 125.062 40.3125C125.104 40.3125 125.062 40.4583 124.938 40.75C124.729 41.2917 124.375 41.75 123.875 42.125C123.417 42.5 122.938 42.875 122.438 43.25C121.979 43.5833 121.542 43.9792 121.125 44.4375C120.75 44.8542 120.562 45.3958 120.562 46.0625C119.646 46.3958 119 46.8958 118.625 47.5625C118.25 48.1875 118 48.9167 117.875 49.75C117.75 50.5417 117.667 51.375 117.625 52.25C117.583 53.0833 117.438 53.8542 117.188 54.5625L117.75 55.1875L118.25 54.5625C118.833 55.3958 119.521 55.9167 120.312 56.125C121.146 56.3333 122 56.3958 122.875 56.3125C123.292 55.6875 123.771 55.1875 124.312 54.8125C124.896 54.4375 125.5 54.125 126.125 53.875C126.792 53.625 127.458 53.3958 128.125 53.1875C128.833 52.9792 129.5 52.7292 130.125 52.4375C130.625 52.1875 131.042 51.9167 131.375 51.625C131.75 51.3333 132.146 51 132.562 50.625C133.812 49.4583 135.042 48.3125 136.25 47.1875C137.5 46.0625 138.75 44.9167 140 43.75C140.25 43.75 140.417 43.875 140.5 44.125C140.583 44.375 140.625 44.6667 140.625 45C140.625 45.2917 140.604 45.6042 140.562 45.9375C140.562 46.2292 140.562 46.4583 140.562 46.625ZM153.938 20C153.188 20.2917 152.771 20.7292 152.688 21.3125C152.604 21.8958 152.562 22.5 152.562 23.125C152.604 23.75 152.583 24.3333 152.5 24.875C152.417 25.4167 152 25.7708 151.25 25.9375C150.958 25.4375 150.583 24.9792 150.125 24.5625C149.708 24.1042 149.292 23.6667 148.875 23.25C148.458 22.7917 148.125 22.3125 147.875 21.8125C147.625 21.3125 147.542 20.7083 147.625 20L150.75 16.375C151.25 16.5417 151.646 16.75 151.938 17C152.229 17.25 152.479 17.5417 152.688 17.875C152.896 18.2083 153.083 18.5625 153.25 18.9375C153.458 19.2708 153.688 19.625 153.938 20ZM166.062 48C166.104 48.9167 166.021 49.5625 165.812 49.9375C165.646 50.3125 165.438 50.625 165.188 50.875C164.938 51.0833 164.708 51.3333 164.5 51.625C164.333 51.875 164.25 52.3333 164.25 53C163.292 54.0417 162.521 54.8125 161.938 55.3125C161.354 55.7708 160.792 56.1667 160.25 56.5C159.708 56.7917 159.104 57.125 158.438 57.5C157.771 57.875 156.854 58.4583 155.688 59.25L155.25 59.3125C155.125 59.9375 154.896 60.2917 154.562 60.375C154.271 60.5 153.917 60.5625 153.5 60.5625C153.125 60.5625 152.75 60.6042 152.375 60.6875C152 60.7708 151.688 61.125 151.438 61.75C150.729 61.9583 150.125 62.0417 149.625 62C149.125 61.9583 148.479 61.9375 147.688 61.9375C147.438 61.9375 147.104 61.9167 146.688 61.875C146.312 61.8333 146 61.8542 145.75 61.9375C145.583 61.9792 145.396 62.0833 145.188 62.25C145.021 62.4583 144.833 62.625 144.625 62.75C144.417 62.875 144.208 62.9167 144 62.875C143.792 62.875 143.604 62.7083 143.438 62.375C142.938 62.5 142.479 62.5 142.062 62.375C141.646 62.25 141.25 62.0417 140.875 61.75C140.5 61.4583 140.146 61.1042 139.812 60.6875C139.521 60.3125 139.229 59.9583 138.938 59.625C138.729 59.375 138.5 59.1458 138.25 58.9375C138 58.7292 137.771 58.5208 137.562 58.3125C137.104 57.8542 136.771 57.2708 136.562 56.5625C136.354 55.8542 136.229 55.125 136.188 54.375C136.146 53.625 136.167 52.875 136.25 52.125C136.333 51.375 136.458 50.7083 136.625 50.125C137 49.75 137.271 49.3333 137.438 48.875C137.562 48.375 137.667 47.875 137.75 47.375C137.875 46.875 138 46.3958 138.125 45.9375C138.292 45.4375 138.562 45 138.938 44.625C138.938 44.0833 139.021 43.5833 139.188 43.125C139.396 42.6667 139.646 42.2292 139.938 41.8125C140.271 41.3958 140.625 41.0208 141 40.6875C141.417 40.3125 141.792 39.9583 142.125 39.625C142.458 39.625 142.792 39.625 143.125 39.625C143.458 39.5833 143.771 39.6042 144.062 39.6875C144.354 39.7292 144.604 39.8542 144.812 40.0625C145.021 40.2292 145.188 40.5208 145.312 40.9375C145.604 42.0625 145.521 42.9792 145.062 43.6875C144.646 44.3542 144.167 45 143.625 45.625C143.083 46.25 142.646 46.8958 142.312 47.5625C141.979 48.2292 142.062 49.0833 142.562 50.125C142.104 50.125 141.792 50.25 141.625 50.5C141.5 50.75 141.396 51.0417 141.312 51.375C141.271 51.6667 141.188 51.9583 141.062 52.25C140.938 52.5417 140.688 52.75 140.312 52.875C140.562 53.125 140.688 53.5625 140.688 54.1875C140.729 54.8125 140.792 55.4167 140.875 56C141 56.5417 141.188 56.9792 141.438 57.3125C141.729 57.6458 142.25 57.6667 143 57.375C143.542 57.8333 144.188 58.0208 144.938 57.9375C145.729 57.8542 146.458 57.8333 147.125 57.875C147.708 57.5 148.208 57.3125 148.625 57.3125C149.042 57.2708 149.438 57.3125 149.812 57.4375C150.188 57.5208 150.583 57.6042 151 57.6875C151.417 57.7708 151.917 57.7083 152.5 57.5C152.667 56.7917 152.958 56.375 153.375 56.25C153.792 56.125 154.208 56.0625 154.625 56.0625C155.042 56.0208 155.417 55.9375 155.75 55.8125C156.125 55.6875 156.375 55.2708 156.5 54.5625C156.833 54.1458 157.229 53.9167 157.688 53.875C158.146 53.7917 158.604 53.7083 159.062 53.625C159.562 53.5417 160 53.375 160.375 53.125C160.792 52.8333 161.083 52.2917 161.25 51.5C161.958 50.9583 162.458 50.5625 162.75 50.3125C163.083 50.0208 163.354 49.7917 163.562 49.625C163.771 49.4583 164.042 49.2708 164.375 49.0625C164.708 48.8542 165.271 48.5 166.062 48ZM197.5 57.625C197.75 57.7917 197.854 57.9375 197.812 58.0625C197.771 58.1875 197.667 58.3125 197.5 58.4375C197.375 58.5625 197.208 58.6667 197 58.75C196.792 58.7917 196.625 58.8333 196.5 58.875L194.625 59.25C193.042 59.5833 191.542 60.0417 190.125 60.625C188.708 61.25 187.271 61.8542 185.812 62.4375C185.646 62.2292 185.417 62.0833 185.125 62C184.875 61.9167 184.646 62 184.438 62.25C184.479 62.375 184.5 62.5625 184.5 62.8125C184.5 63.3125 184.479 63.7083 184.438 64C184.396 64.3333 184.312 64.625 184.188 64.875C184.104 65.125 183.958 65.3542 183.75 65.5625C183.542 65.8125 183.271 66.1042 182.938 66.4375C182.521 66.8542 182.583 67.0625 183.125 67.0625C182.833 67.4375 182.521 67.6458 182.188 67.6875C182.104 67.7292 181.979 67.75 181.812 67.75C181.729 67.75 181.646 67.7708 181.562 67.8125C181.521 67.8958 181.562 68.0625 181.688 68.3125C181.812 68.6042 181.896 68.7917 181.938 68.875C181.938 68.9167 181.875 69.0208 181.75 69.1875C181.625 69.3542 181.5 69.5208 181.375 69.6875C181.25 69.8958 181.146 70.0833 181.062 70.25C180.979 70.4583 180.979 70.625 181.062 70.75V71.25C181.271 71.3333 181.271 71.3958 181.062 71.4375C180.896 71.5208 180.792 71.5625 180.75 71.5625C180.708 71.5625 180.583 71.6458 180.375 71.8125C180.167 72.0208 180.062 72.1458 180.062 72.1875C179.979 72.2708 179.875 72.3125 179.75 72.3125C179.667 72.3542 179.562 72.4167 179.438 72.5C179.396 72.5 179.333 72.5625 179.25 72.6875C179.208 72.8542 179.167 73.0208 179.125 73.1875C179.083 73.3542 179.042 73.5208 179 73.6875C178.958 73.8542 178.958 73.9583 179 74C179 74.5417 178.938 75 178.812 75.375C178.729 75.75 178.625 76.2083 178.5 76.75C178.333 77.4167 178.083 77.875 177.75 78.125C177.458 78.4167 177.146 78.6667 176.812 78.875C176.479 79.125 176.146 79.3958 175.812 79.6875C175.521 79.9792 175.292 80.4583 175.125 81.125C175.083 81.2917 175.042 81.4375 175 81.5625C174.958 81.6458 174.938 81.75 174.938 81.875V82C174.771 82.2917 174.625 82.5208 174.5 82.6875C174.417 82.8958 174.333 83.0833 174.25 83.25C174.167 83.4167 174.104 83.6042 174.062 83.8125C174.021 84.0208 174 84.2708 174 84.5625C174.083 84.6875 174.083 84.875 174 85.125C173.958 85.375 173.875 85.625 173.75 85.875C173.625 86.125 173.479 86.375 173.312 86.625C173.188 86.875 173.083 87.0625 173 87.1875C172.875 87.3958 172.729 87.6042 172.562 87.8125C172.396 88.0208 172.229 88.2292 172.062 88.4375C171.188 89.6458 170.458 90.8333 169.875 92C169 93.75 167.938 95.4167 166.688 97C166.438 97.2917 166.146 97.6042 165.812 97.9375C165.521 98.2708 165.292 98.6042 165.125 98.9375V99.375C165.125 100.208 164.896 100.833 164.438 101.25C163.979 101.667 163.417 102.062 162.75 102.438C162.542 102.604 162.312 102.771 162.062 102.938C161.812 103.104 161.604 103.312 161.438 103.562C161.188 103.896 160.854 104.312 160.438 104.812C159.979 105.312 159.562 105.667 159.188 105.875C159.104 105.875 158.833 105.854 158.375 105.812C157.917 105.771 157.646 105.75 157.562 105.75C157.479 105.792 157.354 105.875 157.188 106C156.979 106.125 156.771 106.25 156.562 106.375C156.354 106.5 156.146 106.604 155.938 106.688C155.729 106.771 155.604 106.792 155.562 106.75C155.312 106.625 155.104 106.562 154.938 106.562C154.854 106.562 154.771 106.604 154.688 106.688C154.562 106.812 154.458 106.917 154.375 107C154.042 106.917 153.792 106.875 153.625 106.875C153.542 106.875 153.417 106.792 153.25 106.625C153.042 106.458 152.854 106.25 152.688 106C152.479 105.792 152.312 105.583 152.188 105.375C152.021 105.167 151.917 105.021 151.875 104.938C151.583 104.479 151.417 103.938 151.375 103.312C151.333 102.688 151.354 102.021 151.438 101.312C151.479 100.646 151.562 99.9792 151.688 99.3125C151.812 98.6458 151.938 98.0625 152.062 97.5625C152.271 96.7292 152.458 95.875 152.625 95C152.792 94.1667 152.875 93.3333 152.875 92.5C152.875 92.2917 152.917 92.125 153 92C153.083 91.875 153.167 91.75 153.25 91.625C153.333 91.5417 153.354 91.4375 153.312 91.3125C153.271 91.2292 153.229 91.1458 153.188 91.0625C153.146 90.9375 153.188 90.6875 153.312 90.3125C153.438 89.9375 153.604 89.5208 153.812 89.0625C153.979 88.6458 154.167 88.2292 154.375 87.8125C154.542 87.4375 154.667 87.1875 154.75 87.0625C155.583 85.5625 156.354 83.9792 157.062 82.3125C157.729 80.6458 158.604 79.1458 159.688 77.8125C160.312 77.0625 160.938 76.3125 161.562 75.5625C162.188 74.8125 162.792 74.0208 163.375 73.1875C163.625 72.8542 163.833 72.6042 164 72.4375C164.25 72.1042 164.625 71.8333 165.125 71.625C165.625 71.4167 166.104 71.3542 166.562 71.4375C166.604 71.4375 166.792 71.3125 167.125 71.0625C167.5 70.8125 167.708 70.6667 167.75 70.625C167.917 70.0833 168.188 69.5 168.562 68.875C168.938 68.2917 169.312 67.7708 169.688 67.3125C169.938 67.0208 170.271 66.8125 170.688 66.6875C171.104 66.5625 171.542 66.4375 172 66.3125C172.5 66.1875 172.979 66.0208 173.438 65.8125C173.896 65.6458 174.312 65.3333 174.688 64.875C174.979 64.5417 175.354 64.1458 175.812 63.6875C176.312 63.2292 176.792 62.9167 177.25 62.75C177.667 62.8333 178.229 62.7708 178.938 62.5625C179.688 62.3542 180.188 62.0625 180.438 61.6875C180.646 61.3958 180.75 60.9167 180.75 60.25C180.75 59.9167 180.875 59.5 181.125 59C181.417 58.5 181.646 58.125 181.812 57.875C182.021 57.5417 182.188 57.2083 182.312 56.875C182.438 56.5417 182.562 56.2083 182.688 55.875C182.771 55.6667 182.833 55.4792 182.875 55.3125C182.917 55.1042 182.958 54.8958 183 54.6875C183.042 54.6458 183.125 54.5 183.25 54.25C183.375 54 183.5 53.75 183.625 53.5C183.792 53.25 183.917 53.0208 184 52.8125C184.125 52.5625 184.167 52.4167 184.125 52.375C184.125 52.3333 184 52.2917 183.75 52.25C183.5 52.2083 183.229 52.1875 182.938 52.1875C182.688 52.1458 182.438 52.125 182.188 52.125C181.938 52.0833 181.792 52.0625 181.75 52.0625C181.583 52.0625 181.333 52.125 181 52.25C180.708 52.375 180.375 52.5208 180 52.6875C179.667 52.8542 179.375 53.0417 179.125 53.25C178.875 53.4167 178.729 53.5417 178.688 53.625C177.354 54.0833 176.021 54.3333 174.688 54.375C173.354 54.4167 172.021 54.6875 170.688 55.1875C169.896 55.4792 169.021 55.7083 168.062 55.875C167.146 56 166.25 56.0417 165.375 56C165.333 56 165.208 55.9792 165 55.9375C164.792 55.8542 164.562 55.7708 164.312 55.6875C164.062 55.5625 163.833 55.4583 163.625 55.375C163.417 55.2917 163.292 55.25 163.25 55.25C163.042 55.1667 162.833 55.0208 162.625 54.8125C162.458 54.5625 162.292 54.3125 162.125 54.0625C162 53.7708 161.875 53.5 161.75 53.25C161.625 52.9583 161.521 52.7292 161.438 52.5625C161.229 52.1042 161.062 51.6458 160.938 51.1875C160.771 50.7292 160.646 50.2708 160.562 49.8125C160.521 49.8125 160.5 49.6458 160.5 49.3125C160.5 49.1458 160.479 49 160.438 48.875C160.271 47.75 160.167 46.5 160.125 45.125C160.042 43.75 160.312 42.5625 160.938 41.5625C161.104 41.2708 161.292 40.9583 161.5 40.625C161.708 40.25 161.917 39.9375 162.125 39.6875C162.292 39.4792 162.438 39.3125 162.562 39.1875C162.688 39.0625 162.833 38.8958 163 38.6875C163.042 38.6042 163.125 38.5208 163.25 38.4375C163.375 38.3125 163.438 38.2292 163.438 38.1875C163.896 37.7292 164.312 37.25 164.688 36.75C165.062 36.25 165.417 35.75 165.75 35.25C165.833 35.125 165.958 34.9792 166.125 34.8125C166.292 34.6042 166.458 34.4167 166.625 34.25C166.833 34.0417 167.042 33.8958 167.25 33.8125C167.458 33.6875 167.646 33.6667 167.812 33.75C168.021 33.75 168.208 33.75 168.375 33.75C168.583 33.75 168.792 33.7708 169 33.8125C169.208 34.1458 169.354 34.4167 169.438 34.625C169.562 34.8333 169.625 35.0625 169.625 35.3125C169.667 35.5208 169.667 35.7708 169.625 36.0625C169.625 36.3125 169.625 36.625 169.625 37C169.417 37.1667 169.188 37.3333 168.938 37.5C168.688 37.6667 168.438 37.8333 168.188 38C168.104 38.0833 167.958 38.3542 167.75 38.8125C167.583 39.2708 167.396 39.7917 167.188 40.375C167.021 40.9167 166.854 41.4583 166.688 42C166.562 42.5 166.479 42.8125 166.438 42.9375C166.188 44.0208 165.75 45.1042 165.125 46.1875C164.542 47.2708 163.875 48.2083 163.125 49L163.062 49.1875C163.354 49.4792 163.604 49.7708 163.812 50.0625C164.062 50.3125 164.312 50.5625 164.562 50.8125C165.062 50.8125 165.542 50.75 166 50.625C166.208 50.7917 166.417 50.9583 166.625 51.125C166.875 51.2917 167.083 51.4792 167.25 51.6875C167.792 51.6875 168.271 51.6875 168.688 51.6875C169.146 51.6875 169.562 51.6667 169.938 51.625C170.354 51.5833 170.771 51.5 171.188 51.375C171.604 51.25 172.042 51.0417 172.5 50.75C172.667 50.6667 172.917 50.5208 173.25 50.3125C173.583 50.0625 173.854 49.9375 174.062 49.9375L176.312 49.5625C176.688 49.3958 177.042 49.2083 177.375 49C177.75 48.75 178.104 48.5208 178.438 48.3125C178.646 48.1875 178.875 48.0833 179.125 48C179.417 47.875 179.667 47.7708 179.875 47.6875C181.167 47.1042 182.271 46.3333 183.188 45.375C184.146 44.4167 185.125 43.4583 186.125 42.5C186.917 41.75 187.667 40.8958 188.375 39.9375C189.125 38.9375 189.729 37.9583 190.188 37C190.479 36.2917 190.812 35.5833 191.188 34.875C191.562 34.125 191.979 33.4583 192.438 32.875C192.771 32.5 193.25 32.1875 193.875 31.9375C194.5 31.6875 195.062 31.5208 195.562 31.4375C195.896 31.3542 196.208 31.4792 196.5 31.8125C196.792 32.1042 196.938 32.3958 196.938 32.6875C196.979 33.4792 196.958 34.1458 196.875 34.6875C196.792 35.2292 196.646 35.7292 196.438 36.1875C196.229 36.6042 195.958 37.0417 195.625 37.5C195.292 37.9167 194.875 38.4375 194.375 39.0625L192.938 40.9375C192.896 41.0208 192.896 41.0833 192.938 41.125C193.021 41.1667 193.083 41.2292 193.125 41.3125C193.167 41.3958 193.167 41.5417 193.125 41.75C193.083 41.9167 193.021 42.125 192.938 42.375C192.854 42.625 192.771 42.8542 192.688 43.0625C192.604 43.2708 192.542 43.3958 192.5 43.4375C192.458 43.4375 192.417 43.5 192.375 43.625C192.333 43.7083 192.271 43.7917 192.188 43.875L191.938 44.25C191.396 45.0417 190.938 45.8333 190.562 46.625C190.229 47.375 190.104 48.2292 190.188 49.1875C190.188 49.5625 190.083 49.8958 189.875 50.1875C189.708 50.4792 189.5 50.7917 189.25 51.125C189 51.4167 188.75 51.7708 188.5 52.1875C188.25 52.6042 188.083 53.1667 188 53.875C187.958 54.0417 187.938 54.1875 187.938 54.3125C187.938 54.3958 187.917 54.4583 187.875 54.5C187.875 54.5417 187.875 54.5833 187.875 54.625V54.75C187.667 55.5833 187.438 56.3125 187.188 56.9375C186.938 57.5208 186.646 58.2292 186.312 59.0625C186.354 59.0625 186.479 58.9583 186.688 58.75C186.938 58.5417 187.208 58.3333 187.5 58.125C187.833 57.9167 188.167 57.7292 188.5 57.5625C188.875 57.3958 189.229 57.375 189.562 57.5C189.812 57.5833 190.104 57.625 190.438 57.625C190.771 57.5833 191.083 57.5208 191.375 57.4375C191.708 57.3542 191.979 57.2917 192.188 57.25C192.396 57.1667 192.521 57.125 192.562 57.125C192.938 57.125 193.292 57.125 193.625 57.125C193.958 57.125 194.292 57.1458 194.625 57.1875C194.667 57.2292 194.792 57.25 195 57.25C195.25 57.25 195.521 57.2708 195.812 57.3125C196.146 57.3542 196.458 57.3958 196.75 57.4375C197.083 57.4792 197.333 57.5417 197.5 57.625ZM178.625 66.125C178.5 66.25 178.271 66.4792 177.938 66.8125C177.604 67.1875 177.229 67.5417 176.812 67.875C176.438 68.25 176.062 68.5417 175.688 68.75C175.312 69 175.042 69.0833 174.875 69L174.375 69.25C173.958 69.4583 173.688 69.75 173.562 70.125C173.438 70.5 173.312 70.8958 173.188 71.3125C173.104 71.7292 172.979 72.125 172.812 72.5C172.688 72.875 172.396 73.1667 171.938 73.375C171.396 73.125 171 72.9375 170.75 72.8125C170.542 72.6875 170.354 72.6458 170.188 72.6875C170.021 72.7292 169.833 72.875 169.625 73.125C169.417 73.4167 169.062 73.8333 168.562 74.375C167.396 75.7083 166.208 77.0208 165 78.3125C163.833 79.6458 162.646 80.9792 161.438 82.3125C161.146 83.1458 160.792 84 160.375 84.875C159.917 85.75 159.458 86.6042 159 87.4375C158.5 88.3125 158.062 89.3125 157.688 90.4375C157.312 91.5625 157 92.7083 156.75 93.875C156.458 95.0833 156.229 96.2917 156.062 97.5C155.854 98.7083 155.688 99.8333 155.562 100.875C155.604 100.958 155.75 100.979 156 100.938C156.25 100.938 156.521 100.896 156.812 100.812C157.062 100.771 157.312 100.708 157.562 100.625C157.812 100.583 157.979 100.542 158.062 100.5C158.104 100.5 158.208 100.417 158.375 100.25C158.542 100.083 158.729 99.8958 158.938 99.6875C159.104 99.4792 159.271 99.2708 159.438 99.0625C159.562 98.8958 159.625 98.7917 159.625 98.75C159.792 98.6667 160.083 98.5417 160.5 98.375C160.917 98.2083 161.208 98.125 161.375 98.125C161.458 98.125 161.521 97.9583 161.562 97.625C161.562 97.2917 161.562 97.0833 161.562 97V95.9375C161.479 95.8542 161.458 95.625 161.5 95.25C161.5 94.875 161.5 94.6458 161.5 94.5625C161.958 94.3542 162.396 94.1458 162.812 93.9375C163.271 93.7292 163.729 93.5 164.188 93.25C164.312 92.875 164.458 92.4792 164.625 92.0625C164.792 91.6875 164.979 91.3125 165.188 90.9375C166.021 89.3542 166.812 87.7708 167.562 86.1875C168.312 84.6458 169.167 83.0833 170.125 81.5C170.833 80.3333 171.5 79.1458 172.125 77.9375C172.792 76.7708 173.479 75.5833 174.188 74.375C174.229 74.2917 174.312 74.125 174.438 73.875C174.604 73.625 174.771 73.375 174.938 73.125C175.146 72.875 175.333 72.6458 175.5 72.4375C175.708 72.2708 175.875 72.1875 176 72.1875C176.208 72.1875 176.333 72.0208 176.375 71.6875C176.417 71.3958 176.438 71.1875 176.438 71.0625C176.438 70.8958 176.542 70.5417 176.75 70C177 69.5 177.25 68.9583 177.5 68.375C177.792 67.8333 178.042 67.3333 178.25 66.875C178.5 66.4167 178.625 66.1667 178.625 66.125ZM246.312 52.4375C245.729 53.4375 245.271 54.25 244.938 54.875C244.646 55.4583 244.333 55.9583 244 56.375C243.708 56.75 243.354 57.1042 242.938 57.4375C242.562 57.7292 242.021 58.1042 241.312 58.5625C240.854 58.9792 240.396 59.3333 239.938 59.625C239.562 59.9167 239.188 60.1667 238.812 60.375C238.479 60.5833 238.208 60.6875 238 60.6875C237.917 60.6875 237.833 60.6667 237.75 60.625C237.667 60.625 237.583 60.625 237.5 60.625C237.25 60.625 237 60.625 236.75 60.625C236.542 60.6667 236.354 60.5208 236.188 60.1875C236.062 60.3125 235.958 60.4583 235.875 60.625C235.792 60.7917 235.708 60.9375 235.625 61.0625C235.542 61.2292 235.417 61.3542 235.25 61.4375C235.125 61.5208 234.938 61.5208 234.688 61.4375L234.375 61.0625L233.438 61.875C232.271 61.2917 231.146 60.7917 230.062 60.375C229.021 60 228.083 59.5417 227.25 59C226.417 58.4583 225.708 57.7708 225.125 56.9375C224.542 56.0625 224.125 54.875 223.875 53.375C223.667 53.125 223.438 52.9167 223.188 52.75C222.938 52.5417 222.646 52.4792 222.312 52.5625C221.896 53.2708 221.396 53.875 220.812 54.375C220.229 54.875 219.646 55.4167 219.062 56C218.854 56.2083 218.688 56.4375 218.562 56.6875C218.438 56.9375 218.271 57.1667 218.062 57.375C217.729 57.75 217.333 58.0208 216.875 58.1875C216.417 58.3125 215.958 58.4375 215.5 58.5625C215.042 58.6875 214.604 58.8958 214.188 59.1875C213.812 59.4792 213.542 59.9792 213.375 60.6875C212.875 60.3958 212.375 60.3125 211.875 60.4375C211.5 60.5208 211.104 60.6042 210.688 60.6875C210.271 60.8125 209.854 60.875 209.438 60.875C209.062 60.9167 208.688 60.875 208.312 60.75C207.938 60.625 207.604 60.3542 207.312 59.9375C206.729 60.1875 206.188 60.1667 205.688 59.875C205.188 59.625 204.708 59.2708 204.25 58.8125C203.833 58.3125 203.417 57.7917 203 57.25C202.583 56.7083 202.188 56.3125 201.812 56.0625C201.562 55.3958 201.583 54.8333 201.875 54.375C202.125 53.875 202.417 53.4167 202.75 53C203.042 52.5417 203.25 52.1042 203.375 51.6875C203.5 51.2292 203.312 50.6875 202.812 50.0625C203.229 49.4375 203.604 48.7917 203.938 48.125C204.271 47.4167 204.604 46.7292 204.938 46.0625C205.312 45.3542 205.688 44.6875 206.062 44.0625C206.479 43.3958 206.979 42.8333 207.562 42.375C207.312 42.0833 207.188 41.8125 207.188 41.5625C207.188 41.2708 207.25 41 207.375 40.75C207.5 40.4583 207.646 40.1875 207.812 39.9375C207.979 39.6458 208.104 39.375 208.188 39.125L210 38.25L209.562 36.75C210.021 36.8333 210.354 36.8125 210.562 36.6875C210.812 36.5625 210.979 36.375 211.062 36.125C211.188 35.875 211.271 35.6042 211.312 35.3125C211.396 34.9792 211.5 34.6875 211.625 34.4375C211.833 34.0625 212.146 33.7917 212.562 33.625C213.438 32.9583 214.292 32.25 215.125 31.5C216 30.75 216.854 30.0208 217.688 29.3125C218.562 28.6042 219.458 27.9375 220.375 27.3125C221.292 26.6458 222.292 26.0833 223.375 25.625C224.125 25.75 224.708 25.9792 225.125 26.3125C225.583 26.6458 225.917 27.0417 226.125 27.5C226.375 27.9583 226.562 28.4792 226.688 29.0625C226.812 29.6042 226.938 30.1458 227.062 30.6875C227.271 31.3958 227.521 32 227.812 32.5C228.104 33 228.604 33.4167 229.312 33.75C228.729 34.75 228.5 35.75 228.625 36.75C228.75 37.7083 228.875 38.7292 229 39.8125C229.125 40.8125 229.104 41.7917 228.938 42.75C228.812 43.7083 228.208 44.5625 227.125 45.3125C227.042 45.6042 227.021 45.9167 227.062 46.25C227.104 46.5833 227.125 46.9167 227.125 47.25C227.125 47.5833 227.062 47.8958 226.938 48.1875C226.812 48.4792 226.583 48.7083 226.25 48.875C226.625 49.3333 226.812 49.7917 226.812 50.25C226.854 50.7083 226.875 51.1458 226.875 51.5625C226.917 51.9792 227.021 52.3542 227.188 52.6875C227.396 53.0208 227.854 53.2708 228.562 53.4375C228.688 53.9792 228.792 54.3958 228.875 54.6875C229 54.9375 229.125 55.1458 229.25 55.3125C229.417 55.4792 229.625 55.6458 229.875 55.8125C230.125 55.9375 230.458 56.1458 230.875 56.4375C231.208 56.5208 231.583 56.5208 232 56.4375C232.417 56.3542 232.75 56.4792 233 56.8125C233.208 56.6042 233.458 56.5 233.75 56.5C234.042 56.4583 234.312 56.4583 234.562 56.5L235.375 57.875C235.833 57.5417 236.354 57.25 236.938 57C237.521 56.75 238.083 56.5417 238.625 56.375C239.25 56.2083 239.875 56.0625 240.5 55.9375L246.312 52.4375ZM222.312 31.0625C221.938 31.3958 221.479 31.7292 220.938 32.0625C220.396 32.3958 219.854 32.75 219.312 33.125C218.812 33.5 218.375 33.9167 218 34.375C217.625 34.7917 217.396 35.2917 217.312 35.875C216.354 36.0417 215.688 36.4375 215.312 37.0625C214.938 37.6875 214.625 38.375 214.375 39.125C214.125 39.875 213.854 40.625 213.562 41.375C213.271 42.0833 212.75 42.6458 212 43.0625C211.75 43.2292 211.521 43.3125 211.312 43.3125C211.354 43.3125 211.229 43.3958 210.938 43.5625C210.479 43.8958 210.083 44.3125 209.75 44.8125C209.417 45.3125 209.125 45.8542 208.875 46.4375C208.667 47.0208 208.458 47.625 208.25 48.25C208.083 48.8333 207.917 49.375 207.75 49.875C207.167 49.9583 206.729 50.0833 206.438 50.25C206.146 50.4167 205.958 50.6042 205.875 50.8125C205.833 50.9792 205.854 51.1875 205.938 51.4375C206.021 51.6875 206.146 51.9583 206.312 52.25C206.479 52.5 206.646 52.7917 206.812 53.125C207.021 53.4583 207.188 53.7917 207.312 54.125C207.438 54.4583 207.5 54.7917 207.5 55.125C207.542 55.4583 207.458 55.7708 207.25 56.0625C207.833 56.5208 208.396 56.625 208.938 56.375C209.479 56.0833 209.979 55.7708 210.438 55.4375C210.604 55.3125 210.771 55.1875 210.938 55.0625C211.146 54.8958 211.354 54.7708 211.562 54.6875C212.521 54.8958 213.396 54.8333 214.188 54.5C214.979 54.1667 215.708 53.7083 216.375 53.125C217.042 52.5417 217.688 51.9167 218.312 51.25C218.938 50.5833 219.562 50 220.188 49.5L219.688 49C220.438 48.7917 220.958 48.5208 221.25 48.1875C221.583 47.8125 221.792 47.3958 221.875 46.9375C221.958 46.4792 221.958 46 221.875 45.5C221.792 44.9583 221.729 44.3958 221.688 43.8125C221.646 43.4792 221.625 43.1667 221.625 42.875C221.667 42.5417 221.75 42.2083 221.875 41.875C221.542 40.9167 221.479 40 221.688 39.125C221.938 38.25 222.25 37.4167 222.625 36.625C223.042 35.7917 223.438 34.9583 223.812 34.125C224.188 33.2917 224.375 32.4167 224.375 31.5L222.312 31.0625ZM285.562 38.5C285.604 39.125 285.479 39.7292 285.188 40.3125C284.938 40.8958 284.708 41.4167 284.5 41.875L282.5 44L281.312 47.5625C280.854 47.8958 280.354 48.2292 279.812 48.5625C279.312 48.8542 278.854 49.1667 278.438 49.5C277.979 49.875 277.562 50.2917 277.188 50.75C276.854 51.2083 276.479 51.6042 276.062 51.9375C275.646 52.2708 275.146 52.5625 274.562 52.8125C274.021 53.0208 273.521 53.2708 273.062 53.5625C272.229 54.0625 271.438 54.5833 270.688 55.125C269.979 55.6667 269.229 56.1875 268.438 56.6875C268.229 56.7708 268.062 56.875 267.938 57C267.854 57.0833 267.708 57.1667 267.5 57.25C267.375 57.3333 266.833 57.5 265.875 57.75C264.917 58 263.854 58.2917 262.688 58.625C261.562 58.9167 260.5 59.1875 259.5 59.4375C258.5 59.6875 257.938 59.8125 257.812 59.8125C257.062 59.8958 256.292 59.9375 255.5 59.9375C254.708 59.9375 253.917 59.9583 253.125 60L252.188 60.5625C251.729 60.2292 251.229 59.9167 250.688 59.625C250.146 59.3333 249.688 59.0208 249.312 58.6875C248.896 58.3125 248.479 57.8958 248.062 57.4375C247.646 56.9375 247.271 56.4792 246.938 56.0625C246.729 55.4792 246.521 54.9167 246.312 54.375C246.104 53.7917 245.938 53.2292 245.812 52.6875L245.5 50.3125C245.417 49.5208 245.333 48.75 245.25 48C245.208 47.25 245.146 46.4792 245.062 45.6875C245.771 43.7292 246.396 41.7708 246.938 39.8125C247.521 37.8125 248.229 35.8542 249.062 33.9375C249.271 33.4792 249.458 33.0208 249.625 32.5625C249.833 32.0625 250.042 31.5833 250.25 31.125C250.5 30.625 250.771 30.1667 251.062 29.75C251.354 29.2917 251.604 28.8333 251.812 28.375C252.021 27.875 252.188 27.375 252.312 26.875C252.438 26.3333 252.604 25.8333 252.812 25.375C252.938 25.125 253.146 24.7708 253.438 24.3125C253.729 23.8125 254.042 23.3125 254.375 22.8125C254.708 22.2708 255.021 21.75 255.312 21.25C255.646 20.75 255.917 20.3542 256.125 20.0625C256.458 19.6458 256.792 19.25 257.125 18.875C257.458 18.5 257.729 18.0833 257.938 17.625C258.354 16.9167 258.75 16.0208 259.125 14.9375C259.5 13.8542 259.917 12.8958 260.375 12.0625C260.875 11.1458 261.458 10.2917 262.125 9.5C262.833 8.66667 263.479 7.8125 264.062 6.9375C264.688 6.0625 265.292 5.10417 265.875 4.0625L268.625 2.0625L269.875 3.3125L272.875 2.8125L274.75 5.625C274.667 6.25 274.562 6.95833 274.438 7.75C274.354 8.54167 274.271 9.35417 274.188 10.1875C274.146 10.9792 274.104 11.7708 274.062 12.5625C274.062 13.3125 274.104 13.9792 274.188 14.5625C273.979 15.3125 273.667 16.1042 273.25 16.9375C272.875 17.7292 272.438 18.4167 271.938 19L271.688 22.375L269.188 24.625L268.875 27.8125L266.75 30.3125C266.625 30.8958 266.5 31.5 266.375 32.125C266.25 32.7083 266.083 33.2708 265.875 33.8125C265.667 34.3125 265.417 34.8333 265.125 35.375C264.833 35.875 264.542 36.3958 264.25 36.9375C263.417 37.6458 262.562 38.4375 261.688 39.3125C260.812 40.1875 260.021 41.0625 259.312 41.9375C258.938 42.3958 258.583 42.8958 258.25 43.4375C257.958 43.9375 257.646 44.4167 257.312 44.875C256.229 46.25 255.062 47.5417 253.812 48.75C252.562 49.9583 251.333 51.2083 250.125 52.5L251.5 54.9375C252.375 55.2292 253.271 55.5 254.188 55.75C255.104 56 256.021 56.2292 256.938 56.4375C257.354 56.3542 257.833 56.2708 258.375 56.1875C258.917 56.0625 259.479 55.9375 260.062 55.8125C260.646 55.6458 261.208 55.4792 261.75 55.3125C262.333 55.1458 262.812 54.9792 263.188 54.8125C264.021 54.4792 264.979 54 266.062 53.375C267.146 52.7083 268.062 52.125 268.812 51.625C270.146 50.7917 271.5 49.9375 272.875 49.0625C274.25 48.1875 275.562 47.2708 276.812 46.3125C277.646 45.6875 278.521 44.8958 279.438 43.9375C280.354 42.9792 281.208 42.0833 282 41.25C282.833 40.375 283.562 39.6667 284.188 39.125C284.854 38.5833 285.312 38.375 285.562 38.5ZM268.562 8.9375C267.688 10.3958 266.75 11.8125 265.75 13.1875C264.792 14.5208 263.896 15.9167 263.062 17.375C262.771 17.875 262.521 18.3958 262.312 18.9375C262.104 19.4375 261.833 19.9375 261.5 20.4375C261.208 20.8958 260.896 21.3542 260.562 21.8125C260.229 22.2708 259.938 22.7708 259.688 23.3125C259.188 24.2708 258.729 25.2917 258.312 26.375C257.938 27.4167 257.521 28.4375 257.062 29.4375C256.562 30.4375 255.979 31.375 255.312 32.25C254.646 33.125 254.042 34.0625 253.5 35.0625L252.5 37.0625C252.417 37.2708 252.333 37.4375 252.25 37.5625C252.167 37.6458 252.083 37.7917 252 38C251.833 38.4583 251.75 38.9583 251.75 39.5C251.75 40.0417 251.688 40.5417 251.562 41C251.438 41.5 251.25 41.9792 251 42.4375C250.75 42.8958 250.521 43.3542 250.312 43.8125C250.104 44.2708 249.938 44.75 249.812 45.25C249.688 45.7083 249.542 46.1667 249.375 46.625C249.708 46.2917 250.062 46 250.438 45.75C250.854 45.4583 251.25 45.1458 251.625 44.8125C252 44.4375 252.354 44.0417 252.688 43.625C253.021 43.2083 253.396 42.8333 253.812 42.5C254.188 42.1667 254.583 41.875 255 41.625C255.458 41.3333 255.896 41.0417 256.312 40.75C256.979 39.8333 257.562 38.8958 258.062 37.9375C258.312 37.4792 258.521 36.9583 258.688 36.375C258.896 35.7917 259.146 35.2708 259.438 34.8125C259.688 34.3542 260 33.9167 260.375 33.5C260.792 33.0833 261.146 32.6458 261.438 32.1875C261.771 31.7292 262.042 31.25 262.25 30.75C262.5 30.25 262.771 29.7708 263.062 29.3125C263.646 28.3958 264.292 27.5208 265 26.6875L265.312 22.75L267.562 20.125L267.875 17.75L269.438 15.5625L269.625 12.0625L268.562 8.9375Z" fill="#0E8E1B"/>
<path d="M362.188 36.25C362.229 36.9583 362.146 37.6458 361.938 38.3125C361.729 38.9375 361.5 39.5833 361.25 40.25C361 40.875 360.75 41.5208 360.5 42.1875C360.292 42.8125 360.188 43.4792 360.188 44.1875C359.729 44.1458 359.354 44.2917 359.062 44.625C358.812 44.9167 358.583 45.2917 358.375 45.75C358.208 46.2083 358.062 46.6875 357.938 47.1875C357.812 47.6458 357.688 48 357.562 48.25C356.729 49.8333 355.667 51.3542 354.375 52.8125C353.125 54.2292 351.729 55.5625 350.188 56.8125C348.688 58.0208 347.104 59.125 345.438 60.125C343.771 61.125 342.104 61.9792 340.438 62.6875L340.375 62.75C339.625 62.75 338.792 62.7292 337.875 62.6875C337 62.6458 336.25 62.3333 335.625 61.75C335.042 61.8333 334.396 61.7708 333.688 61.5625C332.979 61.3958 332.417 61.1042 332 60.6875L331.938 60.625C331.604 60.0417 331.25 59.5417 330.875 59.125C330.5 58.7083 330.083 58.2708 329.625 57.8125C329.042 57.1875 328.479 56.5833 327.938 56C327.438 55.4167 327.042 54.7083 326.75 53.875C326.417 52.9167 326.104 51.9583 325.812 51C325.562 50 325.229 49.0208 324.812 48.0625C324.062 48.9792 323.292 49.7708 322.5 50.4375C321.708 51.0625 320.938 51.6875 320.188 52.3125C319.438 52.9375 318.729 53.6458 318.062 54.4375C317.438 55.2292 316.875 56.2292 316.375 57.4375L316.312 57.5625C315.062 57.5625 313.979 57.8958 313.062 58.5625C312.188 59.1875 311.333 59.7917 310.5 60.375C309.667 60.9583 308.792 61.375 307.875 61.625C307 61.875 305.979 61.5833 304.812 60.75H302.688L302.625 60.625C301.875 59.0833 301.146 57.4583 300.438 55.75C299.771 54.0417 299.25 52.3125 298.875 50.5625C298.5 48.7708 298.333 47 298.375 45.25C298.417 43.4583 298.771 41.7083 299.438 40C299.729 39.2917 300.042 38.625 300.375 38C300.75 37.375 301.167 36.75 301.625 36.125C301.667 36.0833 301.688 36.0417 301.688 36C301.938 36.2083 302.188 36.1458 302.438 35.8125C302.729 35.4792 302.938 35.25 303.062 35.125V33C303.188 32.9583 303.354 32.9375 303.562 32.9375C303.812 32.9375 304.042 32.9375 304.25 32.9375C304.458 32.9375 304.646 32.9375 304.812 32.9375C304.979 32.8958 305.083 32.7917 305.125 32.625C305.167 32.5833 305.167 32.5208 305.125 32.4375C305.083 32.3542 305.062 32.2708 305.062 32.1875C305.062 31.6875 305.188 31.2917 305.438 31C305.729 30.6667 306.062 30.375 306.438 30.125C306.812 29.875 307.188 29.6667 307.562 29.5C307.938 29.2917 308.208 29.0833 308.375 28.875C308.708 28.875 309.021 28.8958 309.312 28.9375C309.604 28.9375 309.875 29.0417 310.125 29.25C310.375 29.4583 310.542 29.75 310.625 30.125C310.75 30.5 310.812 30.8958 310.812 31.3125C310.854 31.6875 310.896 32.0833 310.938 32.5C310.979 32.9167 311.062 33.2708 311.188 33.5625L311.25 33.625C311.25 34.2083 311.104 34.7083 310.812 35.125C310.562 35.5 310.25 35.8542 309.875 36.1875C309.542 36.5208 309.188 36.8542 308.812 37.1875C308.479 37.5208 308.25 37.9167 308.125 38.375V38.4375C307.667 39.0208 307.188 39.6042 306.688 40.1875C306.229 40.7708 305.729 41.3542 305.188 41.9375C305.646 42.3125 305.792 42.6458 305.625 42.9375C305.5 43.1875 305.292 43.4167 305 43.625C304.75 43.8333 304.562 44.0417 304.438 44.25C304.354 44.4583 304.583 44.6875 305.125 44.9375C305 45.3125 304.792 45.6875 304.5 46.0625C304.208 46.3958 303.917 46.75 303.625 47.125C303.375 47.5 303.188 47.875 303.062 48.25C302.979 48.625 303.104 49.0417 303.438 49.5L303.562 49.5625C303.438 49.7708 303.396 50.1667 303.438 50.75C303.521 51.2917 303.625 51.8958 303.75 52.5625C303.917 53.1875 304.083 53.8125 304.25 54.4375C304.417 55.0208 304.521 55.4583 304.562 55.75C304.896 56.2917 305.292 56.6667 305.75 56.875C306.25 57.0417 306.708 57.1042 307.125 57.0625C307.583 57.0208 307.958 56.8958 308.25 56.6875C308.583 56.4792 308.75 56.2292 308.75 55.9375L309.188 55.75C309.271 56.0417 309.396 56.1875 309.562 56.1875C309.729 56.1458 309.917 56.0625 310.125 55.9375C310.333 55.8542 310.479 55.7917 310.562 55.75C310.646 55.7083 310.792 55.6667 311 55.625C311.75 55.4583 312.521 55.1042 313.312 54.5625C314.146 54.0208 314.917 53.3958 315.625 52.6875C316.333 51.9792 316.938 51.2083 317.438 50.375C317.979 49.5417 318.354 48.7708 318.562 48.0625V47.9375H318.688C319.521 47.6042 320.208 47.125 320.75 46.5C321.292 45.875 321.792 45.25 322.25 44.625C322.708 43.9583 323.208 43.375 323.75 42.875C324.292 42.3333 324.979 41.9792 325.812 41.8125C325.938 41.4792 326.125 41.1875 326.375 40.9375C326.625 40.6458 326.854 40.375 327.062 40.125C327.312 39.8333 327.521 39.5625 327.688 39.3125C327.896 39.0208 328 38.7083 328 38.375C328 38.2083 327.958 38 327.875 37.75C327.833 37.5 327.812 37.3333 327.812 37.25C327.979 37.0833 328.312 36.8125 328.812 36.4375C329.312 36.0208 329.812 35.5833 330.312 35.125C330.854 34.6667 331.354 34.2292 331.812 33.8125C332.271 33.3958 332.542 33.0833 332.625 32.875L332.75 33C333.208 33.4583 333.521 33.9375 333.688 34.4375C333.854 34.8958 333.938 35.375 333.938 35.875C333.938 36.3333 333.875 36.8333 333.75 37.375C333.625 37.875 333.521 38.375 333.438 38.875L333.375 38.9375C333.125 39.3542 332.875 39.7292 332.625 40.0625C332.417 40.3542 332.146 40.6667 331.812 41C331.271 41.5417 330.771 42.2083 330.312 43C330.438 43.625 330.438 44.25 330.312 44.875C330.188 45.5 330.062 46.125 329.938 46.75C329.812 47.3333 329.75 47.9167 329.75 48.5C329.792 49.0833 330 49.6667 330.375 50.25C330 50.4583 329.792 50.6875 329.75 50.9375C329.75 51.1458 329.812 51.375 329.938 51.625C330.104 51.875 330.271 52.125 330.438 52.375C330.646 52.625 330.771 52.8958 330.812 53.1875C331.396 53.9375 332.083 54.5208 332.875 54.9375C333.667 55.3542 334.5 55.6458 335.375 55.8125C336.25 55.9792 337.125 56.0833 338 56.125C338.917 56.125 339.812 56.125 340.688 56.125H342.438C343.771 56.125 344.833 55.8125 345.625 55.1875C346.417 54.5625 347.104 53.8125 347.688 52.9375C348.312 52.0625 348.938 51.1667 349.562 50.25C350.188 49.3333 351 48.5833 352 48C352 47.3333 352.146 46.8333 352.438 46.5C352.729 46.1667 353.021 45.875 353.312 45.625C353.646 45.375 353.896 45.1042 354.062 44.8125C354.271 44.4792 354.25 44 354 43.375C354.5 43.2083 354.917 42.8958 355.25 42.4375C355.583 41.9792 355.875 41.4792 356.125 40.9375C356.417 40.3542 356.667 39.7917 356.875 39.25C357.125 38.6667 357.396 38.1667 357.688 37.75C357.562 37.2917 357.521 36.8542 357.562 36.4375C357.646 36.0208 357.708 35.625 357.75 35.25C357.792 34.8333 357.75 34.4375 357.625 34.0625C357.5 33.6875 357.188 33.2917 356.688 32.875L356.625 32.8125V32.75C356.417 32.25 356.375 31.8333 356.5 31.5C356.667 31.1667 356.875 30.8542 357.125 30.5625C357.417 30.2708 357.667 30 357.875 29.75C358.125 29.5 358.229 29.2083 358.188 28.875C359.479 28.875 360.396 29.1042 360.938 29.5625C361.521 29.9792 361.896 30.5417 362.062 31.25C362.229 31.9167 362.271 32.6875 362.188 33.5625C362.146 34.4375 362.146 35.3333 362.188 36.25ZM410.125 52.4375C409.542 53.4375 409.083 54.25 408.75 54.875C408.458 55.4583 408.146 55.9583 407.812 56.375C407.521 56.75 407.167 57.1042 406.75 57.4375C406.375 57.7292 405.833 58.1042 405.125 58.5625C404.667 58.9792 404.208 59.3333 403.75 59.625C403.375 59.9167 403 60.1667 402.625 60.375C402.292 60.5833 402.021 60.6875 401.812 60.6875C401.729 60.6875 401.646 60.6667 401.562 60.625C401.479 60.625 401.396 60.625 401.312 60.625C401.062 60.625 400.812 60.625 400.562 60.625C400.354 60.6667 400.167 60.5208 400 60.1875C399.875 60.3125 399.771 60.4583 399.688 60.625C399.604 60.7917 399.521 60.9375 399.438 61.0625C399.354 61.2292 399.229 61.3542 399.062 61.4375C398.938 61.5208 398.75 61.5208 398.5 61.4375L398.188 61.0625L397.25 61.875C396.083 61.2917 394.958 60.7917 393.875 60.375C392.833 60 391.896 59.5417 391.062 59C390.229 58.4583 389.521 57.7708 388.938 56.9375C388.354 56.0625 387.938 54.875 387.688 53.375C387.479 53.125 387.25 52.9167 387 52.75C386.75 52.5417 386.458 52.4792 386.125 52.5625C385.708 53.2708 385.208 53.875 384.625 54.375C384.042 54.875 383.458 55.4167 382.875 56C382.667 56.2083 382.5 56.4375 382.375 56.6875C382.25 56.9375 382.083 57.1667 381.875 57.375C381.542 57.75 381.146 58.0208 380.688 58.1875C380.229 58.3125 379.771 58.4375 379.312 58.5625C378.854 58.6875 378.417 58.8958 378 59.1875C377.625 59.4792 377.354 59.9792 377.188 60.6875C376.688 60.3958 376.188 60.3125 375.688 60.4375C375.312 60.5208 374.917 60.6042 374.5 60.6875C374.083 60.8125 373.667 60.875 373.25 60.875C372.875 60.9167 372.5 60.875 372.125 60.75C371.75 60.625 371.417 60.3542 371.125 59.9375C370.542 60.1875 370 60.1667 369.5 59.875C369 59.625 368.521 59.2708 368.062 58.8125C367.646 58.3125 367.229 57.7917 366.812 57.25C366.396 56.7083 366 56.3125 365.625 56.0625C365.375 55.3958 365.396 54.8333 365.688 54.375C365.938 53.875 366.229 53.4167 366.562 53C366.854 52.5417 367.062 52.1042 367.188 51.6875C367.312 51.2292 367.125 50.6875 366.625 50.0625C367.042 49.4375 367.417 48.7917 367.75 48.125C368.083 47.4167 368.417 46.7292 368.75 46.0625C369.125 45.3542 369.5 44.6875 369.875 44.0625C370.292 43.3958 370.792 42.8333 371.375 42.375C371.125 42.0833 371 41.8125 371 41.5625C371 41.2708 371.062 41 371.188 40.75C371.312 40.4583 371.458 40.1875 371.625 39.9375C371.792 39.6458 371.917 39.375 372 39.125L373.812 38.25L373.375 36.75C373.833 36.8333 374.167 36.8125 374.375 36.6875C374.625 36.5625 374.792 36.375 374.875 36.125C375 35.875 375.083 35.6042 375.125 35.3125C375.208 34.9792 375.312 34.6875 375.438 34.4375C375.646 34.0625 375.958 33.7917 376.375 33.625C377.25 32.9583 378.104 32.25 378.938 31.5C379.812 30.75 380.667 30.0208 381.5 29.3125C382.375 28.6042 383.271 27.9375 384.188 27.3125C385.104 26.6458 386.104 26.0833 387.188 25.625C387.938 25.75 388.521 25.9792 388.938 26.3125C389.396 26.6458 389.729 27.0417 389.938 27.5C390.188 27.9583 390.375 28.4792 390.5 29.0625C390.625 29.6042 390.75 30.1458 390.875 30.6875C391.083 31.3958 391.333 32 391.625 32.5C391.917 33 392.417 33.4167 393.125 33.75C392.542 34.75 392.312 35.75 392.438 36.75C392.562 37.7083 392.688 38.7292 392.812 39.8125C392.938 40.8125 392.917 41.7917 392.75 42.75C392.625 43.7083 392.021 44.5625 390.938 45.3125C390.854 45.6042 390.833 45.9167 390.875 46.25C390.917 46.5833 390.938 46.9167 390.938 47.25C390.938 47.5833 390.875 47.8958 390.75 48.1875C390.625 48.4792 390.396 48.7083 390.062 48.875C390.438 49.3333 390.625 49.7917 390.625 50.25C390.667 50.7083 390.688 51.1458 390.688 51.5625C390.729 51.9792 390.833 52.3542 391 52.6875C391.208 53.0208 391.667 53.2708 392.375 53.4375C392.5 53.9792 392.604 54.3958 392.688 54.6875C392.812 54.9375 392.938 55.1458 393.062 55.3125C393.229 55.4792 393.438 55.6458 393.688 55.8125C393.938 55.9375 394.271 56.1458 394.688 56.4375C395.021 56.5208 395.396 56.5208 395.812 56.4375C396.229 56.3542 396.562 56.4792 396.812 56.8125C397.021 56.6042 397.271 56.5 397.562 56.5C397.854 56.4583 398.125 56.4583 398.375 56.5L399.188 57.875C399.646 57.5417 400.167 57.25 400.75 57C401.333 56.75 401.896 56.5417 402.438 56.375C403.062 56.2083 403.688 56.0625 404.312 55.9375L410.125 52.4375ZM386.125 31.0625C385.75 31.3958 385.292 31.7292 384.75 32.0625C384.208 32.3958 383.667 32.75 383.125 33.125C382.625 33.5 382.188 33.9167 381.812 34.375C381.438 34.7917 381.208 35.2917 381.125 35.875C380.167 36.0417 379.5 36.4375 379.125 37.0625C378.75 37.6875 378.438 38.375 378.188 39.125C377.938 39.875 377.667 40.625 377.375 41.375C377.083 42.0833 376.562 42.6458 375.812 43.0625C375.562 43.2292 375.333 43.3125 375.125 43.3125C375.167 43.3125 375.042 43.3958 374.75 43.5625C374.292 43.8958 373.896 44.3125 373.562 44.8125C373.229 45.3125 372.938 45.8542 372.688 46.4375C372.479 47.0208 372.271 47.625 372.062 48.25C371.896 48.8333 371.729 49.375 371.562 49.875C370.979 49.9583 370.542 50.0833 370.25 50.25C369.958 50.4167 369.771 50.6042 369.688 50.8125C369.646 50.9792 369.667 51.1875 369.75 51.4375C369.833 51.6875 369.958 51.9583 370.125 52.25C370.292 52.5 370.458 52.7917 370.625 53.125C370.833 53.4583 371 53.7917 371.125 54.125C371.25 54.4583 371.312 54.7917 371.312 55.125C371.354 55.4583 371.271 55.7708 371.062 56.0625C371.646 56.5208 372.208 56.625 372.75 56.375C373.292 56.0833 373.792 55.7708 374.25 55.4375C374.417 55.3125 374.583 55.1875 374.75 55.0625C374.958 54.8958 375.167 54.7708 375.375 54.6875C376.333 54.8958 377.208 54.8333 378 54.5C378.792 54.1667 379.521 53.7083 380.188 53.125C380.854 52.5417 381.5 51.9167 382.125 51.25C382.75 50.5833 383.375 50 384 49.5L383.5 49C384.25 48.7917 384.771 48.5208 385.062 48.1875C385.396 47.8125 385.604 47.3958 385.688 46.9375C385.771 46.4792 385.771 46 385.688 45.5C385.604 44.9583 385.542 44.3958 385.5 43.8125C385.458 43.4792 385.438 43.1667 385.438 42.875C385.479 42.5417 385.562 42.2083 385.688 41.875C385.354 40.9167 385.292 40 385.5 39.125C385.75 38.25 386.062 37.4167 386.438 36.625C386.854 35.7917 387.25 34.9583 387.625 34.125C388 33.2917 388.188 32.4167 388.188 31.5L386.125 31.0625ZM449.375 38.5C449.417 39.125 449.292 39.7292 449 40.3125C448.75 40.8958 448.521 41.4167 448.312 41.875L446.312 44L445.125 47.5625C444.667 47.8958 444.167 48.2292 443.625 48.5625C443.125 48.8542 442.667 49.1667 442.25 49.5C441.792 49.875 441.375 50.2917 441 50.75C440.667 51.2083 440.292 51.6042 439.875 51.9375C439.458 52.2708 438.958 52.5625 438.375 52.8125C437.833 53.0208 437.333 53.2708 436.875 53.5625C436.042 54.0625 435.25 54.5833 434.5 55.125C433.792 55.6667 433.042 56.1875 432.25 56.6875C432.042 56.7708 431.875 56.875 431.75 57C431.667 57.0833 431.521 57.1667 431.312 57.25C431.188 57.3333 430.646 57.5 429.688 57.75C428.729 58 427.667 58.2917 426.5 58.625C425.375 58.9167 424.312 59.1875 423.312 59.4375C422.312 59.6875 421.75 59.8125 421.625 59.8125C420.875 59.8958 420.104 59.9375 419.312 59.9375C418.521 59.9375 417.729 59.9583 416.938 60L416 60.5625C415.542 60.2292 415.042 59.9167 414.5 59.625C413.958 59.3333 413.5 59.0208 413.125 58.6875C412.708 58.3125 412.292 57.8958 411.875 57.4375C411.458 56.9375 411.083 56.4792 410.75 56.0625C410.542 55.4792 410.333 54.9167 410.125 54.375C409.917 53.7917 409.75 53.2292 409.625 52.6875L409.312 50.3125C409.229 49.5208 409.146 48.75 409.062 48C409.021 47.25 408.958 46.4792 408.875 45.6875C409.583 43.7292 410.208 41.7708 410.75 39.8125C411.333 37.8125 412.042 35.8542 412.875 33.9375C413.083 33.4792 413.271 33.0208 413.438 32.5625C413.646 32.0625 413.854 31.5833 414.062 31.125C414.312 30.625 414.583 30.1667 414.875 29.75C415.167 29.2917 415.417 28.8333 415.625 28.375C415.833 27.875 416 27.375 416.125 26.875C416.25 26.3333 416.417 25.8333 416.625 25.375C416.75 25.125 416.958 24.7708 417.25 24.3125C417.542 23.8125 417.854 23.3125 418.188 22.8125C418.521 22.2708 418.833 21.75 419.125 21.25C419.458 20.75 419.729 20.3542 419.938 20.0625C420.271 19.6458 420.604 19.25 420.938 18.875C421.271 18.5 421.542 18.0833 421.75 17.625C422.167 16.9167 422.562 16.0208 422.938 14.9375C423.312 13.8542 423.729 12.8958 424.188 12.0625C424.688 11.1458 425.271 10.2917 425.938 9.5C426.646 8.66667 427.292 7.8125 427.875 6.9375C428.5 6.0625 429.104 5.10417 429.688 4.0625L432.438 2.0625L433.688 3.3125L436.688 2.8125L438.562 5.625C438.479 6.25 438.375 6.95833 438.25 7.75C438.167 8.54167 438.083 9.35417 438 10.1875C437.958 10.9792 437.917 11.7708 437.875 12.5625C437.875 13.3125 437.917 13.9792 438 14.5625C437.792 15.3125 437.479 16.1042 437.062 16.9375C436.688 17.7292 436.25 18.4167 435.75 19L435.5 22.375L433 24.625L432.688 27.8125L430.562 30.3125C430.438 30.8958 430.312 31.5 430.188 32.125C430.062 32.7083 429.896 33.2708 429.688 33.8125C429.479 34.3125 429.229 34.8333 428.938 35.375C428.646 35.875 428.354 36.3958 428.062 36.9375C427.229 37.6458 426.375 38.4375 425.5 39.3125C424.625 40.1875 423.833 41.0625 423.125 41.9375C422.75 42.3958 422.396 42.8958 422.062 43.4375C421.771 43.9375 421.458 44.4167 421.125 44.875C420.042 46.25 418.875 47.5417 417.625 48.75C416.375 49.9583 415.146 51.2083 413.938 52.5L415.312 54.9375C416.188 55.2292 417.083 55.5 418 55.75C418.917 56 419.833 56.2292 420.75 56.4375C421.167 56.3542 421.646 56.2708 422.188 56.1875C422.729 56.0625 423.292 55.9375 423.875 55.8125C424.458 55.6458 425.021 55.4792 425.562 55.3125C426.146 55.1458 426.625 54.9792 427 54.8125C427.833 54.4792 428.792 54 429.875 53.375C430.958 52.7083 431.875 52.125 432.625 51.625C433.958 50.7917 435.312 49.9375 436.688 49.0625C438.062 48.1875 439.375 47.2708 440.625 46.3125C441.458 45.6875 442.333 44.8958 443.25 43.9375C444.167 42.9792 445.021 42.0833 445.812 41.25C446.646 40.375 447.375 39.6667 448 39.125C448.667 38.5833 449.125 38.375 449.375 38.5ZM432.375 8.9375C431.5 10.3958 430.562 11.8125 429.562 13.1875C428.604 14.5208 427.708 15.9167 426.875 17.375C426.583 17.875 426.333 18.3958 426.125 18.9375C425.917 19.4375 425.646 19.9375 425.312 20.4375C425.021 20.8958 424.708 21.3542 424.375 21.8125C424.042 22.2708 423.75 22.7708 423.5 23.3125C423 24.2708 422.542 25.2917 422.125 26.375C421.75 27.4167 421.333 28.4375 420.875 29.4375C420.375 30.4375 419.792 31.375 419.125 32.25C418.458 33.125 417.854 34.0625 417.312 35.0625L416.312 37.0625C416.229 37.2708 416.146 37.4375 416.062 37.5625C415.979 37.6458 415.896 37.7917 415.812 38C415.646 38.4583 415.562 38.9583 415.562 39.5C415.562 40.0417 415.5 40.5417 415.375 41C415.25 41.5 415.062 41.9792 414.812 42.4375C414.562 42.8958 414.333 43.3542 414.125 43.8125C413.917 44.2708 413.75 44.75 413.625 45.25C413.5 45.7083 413.354 46.1667 413.188 46.625C413.521 46.2917 413.875 46 414.25 45.75C414.667 45.4583 415.062 45.1458 415.438 44.8125C415.812 44.4375 416.167 44.0417 416.5 43.625C416.833 43.2083 417.208 42.8333 417.625 42.5C418 42.1667 418.396 41.875 418.812 41.625C419.271 41.3333 419.708 41.0417 420.125 40.75C420.792 39.8333 421.375 38.8958 421.875 37.9375C422.125 37.4792 422.333 36.9583 422.5 36.375C422.708 35.7917 422.958 35.2708 423.25 34.8125C423.5 34.3542 423.812 33.9167 424.188 33.5C424.604 33.0833 424.958 32.6458 425.25 32.1875C425.583 31.7292 425.854 31.25 426.062 30.75C426.312 30.25 426.583 29.7708 426.875 29.3125C427.458 28.3958 428.104 27.5208 428.812 26.6875L429.125 22.75L431.375 20.125L431.688 17.75L433.25 15.5625L433.438 12.0625L432.375 8.9375ZM485.125 52.4375C484.542 53.4375 484.083 54.25 483.75 54.875C483.458 55.4583 483.146 55.9583 482.812 56.375C482.521 56.75 482.167 57.1042 481.75 57.4375C481.375 57.7292 480.833 58.1042 480.125 58.5625C479.667 58.9792 479.208 59.3333 478.75 59.625C478.375 59.9167 478 60.1667 477.625 60.375C477.292 60.5833 477.021 60.6875 476.812 60.6875C476.729 60.6875 476.646 60.6667 476.562 60.625C476.479 60.625 476.396 60.625 476.312 60.625C476.062 60.625 475.812 60.625 475.562 60.625C475.354 60.6667 475.167 60.5208 475 60.1875C474.875 60.3125 474.771 60.4583 474.688 60.625C474.604 60.7917 474.521 60.9375 474.438 61.0625C474.354 61.2292 474.229 61.3542 474.062 61.4375C473.938 61.5208 473.75 61.5208 473.5 61.4375L473.188 61.0625L472.25 61.875C471.083 61.2917 469.958 60.7917 468.875 60.375C467.833 60 466.896 59.5417 466.062 59C465.229 58.4583 464.521 57.7708 463.938 56.9375C463.354 56.0625 462.938 54.875 462.688 53.375C462.479 53.125 462.25 52.9167 462 52.75C461.75 52.5417 461.458 52.4792 461.125 52.5625C460.708 53.2708 460.208 53.875 459.625 54.375C459.042 54.875 458.458 55.4167 457.875 56C457.667 56.2083 457.5 56.4375 457.375 56.6875C457.25 56.9375 457.083 57.1667 456.875 57.375C456.542 57.75 456.146 58.0208 455.688 58.1875C455.229 58.3125 454.771 58.4375 454.312 58.5625C453.854 58.6875 453.417 58.8958 453 59.1875C452.625 59.4792 452.354 59.9792 452.188 60.6875C451.688 60.3958 451.188 60.3125 450.688 60.4375C450.312 60.5208 449.917 60.6042 449.5 60.6875C449.083 60.8125 448.667 60.875 448.25 60.875C447.875 60.9167 447.5 60.875 447.125 60.75C446.75 60.625 446.417 60.3542 446.125 59.9375C445.542 60.1875 445 60.1667 444.5 59.875C444 59.625 443.521 59.2708 443.062 58.8125C442.646 58.3125 442.229 57.7917 441.812 57.25C441.396 56.7083 441 56.3125 440.625 56.0625C440.375 55.3958 440.396 54.8333 440.688 54.375C440.938 53.875 441.229 53.4167 441.562 53C441.854 52.5417 442.062 52.1042 442.188 51.6875C442.312 51.2292 442.125 50.6875 441.625 50.0625C442.042 49.4375 442.417 48.7917 442.75 48.125C443.083 47.4167 443.417 46.7292 443.75 46.0625C444.125 45.3542 444.5 44.6875 444.875 44.0625C445.292 43.3958 445.792 42.8333 446.375 42.375C446.125 42.0833 446 41.8125 446 41.5625C446 41.2708 446.062 41 446.188 40.75C446.312 40.4583 446.458 40.1875 446.625 39.9375C446.792 39.6458 446.917 39.375 447 39.125L448.812 38.25L448.375 36.75C448.833 36.8333 449.167 36.8125 449.375 36.6875C449.625 36.5625 449.792 36.375 449.875 36.125C450 35.875 450.083 35.6042 450.125 35.3125C450.208 34.9792 450.312 34.6875 450.438 34.4375C450.646 34.0625 450.958 33.7917 451.375 33.625C452.25 32.9583 453.104 32.25 453.938 31.5C454.812 30.75 455.667 30.0208 456.5 29.3125C457.375 28.6042 458.271 27.9375 459.188 27.3125C460.104 26.6458 461.104 26.0833 462.188 25.625C462.938 25.75 463.521 25.9792 463.938 26.3125C464.396 26.6458 464.729 27.0417 464.938 27.5C465.188 27.9583 465.375 28.4792 465.5 29.0625C465.625 29.6042 465.75 30.1458 465.875 30.6875C466.083 31.3958 466.333 32 466.625 32.5C466.917 33 467.417 33.4167 468.125 33.75C467.542 34.75 467.312 35.75 467.438 36.75C467.562 37.7083 467.688 38.7292 467.812 39.8125C467.938 40.8125 467.917 41.7917 467.75 42.75C467.625 43.7083 467.021 44.5625 465.938 45.3125C465.854 45.6042 465.833 45.9167 465.875 46.25C465.917 46.5833 465.938 46.9167 465.938 47.25C465.938 47.5833 465.875 47.8958 465.75 48.1875C465.625 48.4792 465.396 48.7083 465.062 48.875C465.438 49.3333 465.625 49.7917 465.625 50.25C465.667 50.7083 465.688 51.1458 465.688 51.5625C465.729 51.9792 465.833 52.3542 466 52.6875C466.208 53.0208 466.667 53.2708 467.375 53.4375C467.5 53.9792 467.604 54.3958 467.688 54.6875C467.812 54.9375 467.938 55.1458 468.062 55.3125C468.229 55.4792 468.438 55.6458 468.688 55.8125C468.938 55.9375 469.271 56.1458 469.688 56.4375C470.021 56.5208 470.396 56.5208 470.812 56.4375C471.229 56.3542 471.562 56.4792 471.812 56.8125C472.021 56.6042 472.271 56.5 472.562 56.5C472.854 56.4583 473.125 56.4583 473.375 56.5L474.188 57.875C474.646 57.5417 475.167 57.25 475.75 57C476.333 56.75 476.896 56.5417 477.438 56.375C478.062 56.2083 478.688 56.0625 479.312 55.9375L485.125 52.4375ZM461.125 31.0625C460.75 31.3958 460.292 31.7292 459.75 32.0625C459.208 32.3958 458.667 32.75 458.125 33.125C457.625 33.5 457.188 33.9167 456.812 34.375C456.438 34.7917 456.208 35.2917 456.125 35.875C455.167 36.0417 454.5 36.4375 454.125 37.0625C453.75 37.6875 453.438 38.375 453.188 39.125C452.938 39.875 452.667 40.625 452.375 41.375C452.083 42.0833 451.562 42.6458 450.812 43.0625C450.562 43.2292 450.333 43.3125 450.125 43.3125C450.167 43.3125 450.042 43.3958 449.75 43.5625C449.292 43.8958 448.896 44.3125 448.562 44.8125C448.229 45.3125 447.938 45.8542 447.688 46.4375C447.479 47.0208 447.271 47.625 447.062 48.25C446.896 48.8333 446.729 49.375 446.562 49.875C445.979 49.9583 445.542 50.0833 445.25 50.25C444.958 50.4167 444.771 50.6042 444.688 50.8125C444.646 50.9792 444.667 51.1875 444.75 51.4375C444.833 51.6875 444.958 51.9583 445.125 52.25C445.292 52.5 445.458 52.7917 445.625 53.125C445.833 53.4583 446 53.7917 446.125 54.125C446.25 54.4583 446.312 54.7917 446.312 55.125C446.354 55.4583 446.271 55.7708 446.062 56.0625C446.646 56.5208 447.208 56.625 447.75 56.375C448.292 56.0833 448.792 55.7708 449.25 55.4375C449.417 55.3125 449.583 55.1875 449.75 55.0625C449.958 54.8958 450.167 54.7708 450.375 54.6875C451.333 54.8958 452.208 54.8333 453 54.5C453.792 54.1667 454.521 53.7083 455.188 53.125C455.854 52.5417 456.5 51.9167 457.125 51.25C457.75 50.5833 458.375 50 459 49.5L458.5 49C459.25 48.7917 459.771 48.5208 460.062 48.1875C460.396 47.8125 460.604 47.3958 460.688 46.9375C460.771 46.4792 460.771 46 460.688 45.5C460.604 44.9583 460.542 44.3958 460.5 43.8125C460.458 43.4792 460.438 43.1667 460.438 42.875C460.479 42.5417 460.562 42.2083 460.688 41.875C460.354 40.9167 460.292 40 460.5 39.125C460.75 38.25 461.062 37.4167 461.438 36.625C461.854 35.7917 462.25 34.9583 462.625 34.125C463 33.2917 463.188 32.4167 463.188 31.5L461.125 31.0625Z" fill="black"/>
</svg>
