<svg width="83" height="9" viewBox="0 0 83 9" fill="none" xmlns="http://www.w3.org/2000/svg">
<path d="M6.97727 0.272727V9H5.95455L1.19886 2.14773H1.11364V9H0.0568182V0.272727H1.07955L5.85227 7.14205H5.9375V0.272727H6.97727ZM9.44993 9H8.34197L11.5465 0.272727H12.6374L15.842 9H14.734L12.1261 1.65341H12.0579L9.44993 9ZM9.85902 5.59091H14.3249V6.52841H9.85902V5.59091ZM17.2013 9V0.272727H20.1502C20.832 0.272727 21.3917 0.389204 21.8292 0.622159C22.2667 0.852272 22.5906 1.16903 22.8008 1.57244C23.011 1.97585 23.1161 2.43466 23.1161 2.94886C23.1161 3.46307 23.011 3.91903 22.8008 4.31676C22.5906 4.71449 22.2681 5.02699 21.8335 5.25426C21.3988 5.47869 20.8434 5.59091 20.1673 5.59091H17.7809V4.63636H20.1332C20.5991 4.63636 20.9741 4.56818 21.2582 4.43182C21.5451 4.29545 21.7525 4.10227 21.8803 3.85227C22.011 3.59943 22.0763 3.2983 22.0763 2.94886C22.0763 2.59943 22.011 2.29403 21.8803 2.03267C21.7496 1.77131 21.5408 1.5696 21.2539 1.42756C20.967 1.28267 20.5877 1.21023 20.1161 1.21023H18.2582V9H17.2013ZM21.3093 5.07955L23.457 9H22.2298L20.1161 5.07955H21.3093ZM25.9339 0.272727V9H24.8771V0.272727H25.9339ZM27.3029 0.272727H28.5131L30.9336 4.34659H31.0359L33.4563 0.272727H34.6665L31.5131 5.40341V9H30.4563V5.40341L27.3029 0.272727ZM35.5007 9H34.3928L37.5973 0.272727H38.6882L41.8928 9H40.7848L38.1768 1.65341H38.1087L35.5007 9ZM35.9098 5.59091H40.3757V6.52841H35.9098V5.59091ZM43.2521 9V0.272727H44.3089V8.0625H48.3658V9H43.2521ZM51.5874 9L49.201 0.272727H50.2749L52.0987 7.38068H52.1839L54.0419 0.272727H55.2351L57.093 7.38068H57.1783L59.0021 0.272727H60.076L57.6896 9H56.5987L54.6726 2.04545H54.6044L52.6783 9H51.5874ZM61.071 9H59.9631L63.1676 0.272727H64.2585L67.4631 9H66.3551L63.7472 1.65341H63.679L61.071 9ZM61.4801 5.59091H65.946V6.52841H61.4801V5.59091ZM68.8224 9V0.272727H69.8793V8.0625H73.9361V9H68.8224ZM76.4812 9H75.3732L78.5778 0.272727H79.6687L82.8732 9H81.7653L79.1573 1.65341H79.0891L76.4812 9ZM76.8903 5.59091H81.3562V6.52841H76.8903V5.59091Z" fill="white"/>
</svg>
