<svg width="89" height="9" viewBox="0 0 89 9" fill="none" xmlns="http://www.w3.org/2000/svg">
<path d="M8.05824 0.272727V9H6.46449L2.66761 3.5071H2.60369V9H0.758523V0.272727H2.37784L6.14489 5.76136H6.22159V0.272727H8.05824ZM11.087 9H9.10973L12.1225 0.272727H14.5004L17.5089 9H15.5316L13.3455 2.26705H13.2773L11.087 9ZM10.9634 5.5696H15.6339V7.00994H10.9634V5.5696ZM18.5593 9V0.272727H22.0025C22.6616 0.272727 23.2241 0.390625 23.69 0.62642C24.1587 0.859375 24.5153 1.19034 24.7596 1.61932C25.0067 2.04545 25.1303 2.54687 25.1303 3.12358C25.1303 3.70312 25.0053 4.2017 24.7553 4.61932C24.5053 5.03409 24.1431 5.35227 23.6687 5.57386C23.1971 5.79545 22.6261 5.90625 21.9556 5.90625H19.6502V4.4233H21.6573C22.0096 4.4233 22.3022 4.375 22.5352 4.27841C22.7681 4.18182 22.9414 4.03693 23.055 3.84375C23.1715 3.65057 23.2298 3.41051 23.2298 3.12358C23.2298 2.83381 23.1715 2.58949 23.055 2.39062C22.9414 2.19176 22.7667 2.04119 22.5309 1.93892C22.2979 1.83381 22.0039 1.78125 21.6488 1.78125H20.4045V9H18.5593ZM23.2724 5.02841L25.4414 9H23.4045L21.2823 5.02841H23.2724ZM28.2795 0.272727V9H26.4343V0.272727H28.2795ZM29.2862 0.272727H31.353L33.343 4.03125H33.4283L35.4183 0.272727H37.4851L34.3018 5.91477V9H32.4695V5.91477L29.2862 0.272727ZM39.1065 9H37.1293L40.142 0.272727H42.5199L45.5284 9H43.5511L41.3651 2.26705H41.2969L39.1065 9ZM38.983 5.5696H43.6534V7.00994H38.983V5.5696ZM46.5788 9V0.272727H48.424V7.47869H52.1655V9H46.5788Z" fill="#6CA55E"/>
<path d="M55.3519 9L52.8548 0.272727H54.8704L56.315 6.33665H56.3874L57.9812 0.272727H59.707L61.2965 6.34943H61.3732L62.8178 0.272727H64.8335L62.3363 9H60.538L58.8761 3.29403H58.8079L57.1502 9H55.3519ZM66.4464 9H64.4691L67.4819 0.272727H69.8597L72.8683 9H70.891L68.7049 2.26705H68.6367L66.4464 9ZM66.3228 5.5696H70.9933V7.00994H66.3228V5.5696ZM73.9187 9V0.272727H75.7638V7.47869H79.5053V9H73.9187ZM82.4542 9H80.4769L83.4897 0.272727H85.8675L88.8761 9H86.8988L84.7127 2.26705H84.6445L82.4542 9ZM82.3306 5.5696H87.0011V7.00994H82.3306V5.5696Z" fill="black"/>
</svg>
