<svg width="82" height="10" viewBox="0 0 82 10" fill="none" xmlns="http://www.w3.org/2000/svg">
<path d="M1.16602 0.597656L7.20117 7.01953V2.89453C7.20117 2.5625 7.19727 2.27344 7.18945 2.02734C7.18164 1.77734 7.16992 1.5625 7.1543 1.38281C7.13867 1.19922 7.11914 1.04688 7.0957 0.925781C7.07617 0.804687 7.05469 0.703125 7.03125 0.621094V0.597656H8.07422V0.621094C8.05078 0.703125 8.0293 0.804687 8.00977 0.925781C7.99023 1.04688 7.97266 1.19922 7.95703 1.38281C7.94141 1.5625 7.92969 1.77734 7.92188 2.02734C7.91406 2.27344 7.91016 2.5625 7.91016 2.89453V9.11719H7.70508L1.66992 2.70117V6.70898C1.66992 7.04102 1.67383 7.33203 1.68164 7.58203C1.68945 7.82812 1.70117 8.04102 1.7168 8.2207C1.73242 8.40039 1.75 8.55078 1.76953 8.67188C1.78906 8.79297 1.81055 8.89453 1.83398 8.97656V9H0.791016V8.97656C0.814453 8.89453 0.835938 8.79297 0.855469 8.67188C0.878906 8.55078 0.898438 8.40039 0.914062 8.2207C0.929688 8.04102 0.941406 7.82812 0.949219 7.58203C0.957031 7.33203 0.960938 7.04102 0.960938 6.70898V2.89453C0.960938 2.5625 0.957031 2.27344 0.949219 2.02734C0.941406 1.77734 0.929688 1.5625 0.914062 1.38281C0.898438 1.19922 0.878906 1.04688 0.855469 0.925781C0.835938 0.804687 0.814453 0.703125 0.791016 0.621094V0.597656H1.16602ZM15.5215 9V8.97656C15.5293 8.95703 15.5352 8.92773 15.5391 8.88867C15.543 8.84961 15.5449 8.81445 15.5449 8.7832C15.5449 8.66211 15.5273 8.5293 15.4922 8.38477C15.4609 8.23633 15.3984 8.05273 15.3047 7.83398L14.5957 6.24023C14.377 6.23242 14.0859 6.22852 13.7227 6.22852C13.3594 6.22852 12.9668 6.22852 12.5449 6.22852C12.2363 6.22852 11.9375 6.22852 11.6484 6.22852C11.3633 6.22852 11.1055 6.23242 10.875 6.24023L10.2012 7.78711C10.1426 7.93164 10.0801 8.08984 10.0137 8.26172C9.94727 8.43359 9.91406 8.60742 9.91406 8.7832C9.91406 8.83398 9.91797 8.87695 9.92578 8.91211C9.93359 8.94336 9.94141 8.96484 9.94922 8.97656V9H8.75391V8.97656C8.82422 8.90234 8.91211 8.77148 9.01758 8.58398C9.12305 8.39258 9.23828 8.1543 9.36328 7.86914L12.7207 0.421875H13.1895L16.3711 7.58203C16.4453 7.75 16.5215 7.91406 16.5996 8.07422C16.6816 8.23047 16.7578 8.37109 16.8281 8.49609C16.8984 8.62109 16.9609 8.72656 17.0156 8.8125C17.0703 8.89844 17.1074 8.95312 17.127 8.97656V9H15.5215ZM11.7246 5.72461C11.9512 5.72461 12.1836 5.72461 12.4219 5.72461C12.6602 5.7207 12.8926 5.71875 13.1191 5.71875C13.3496 5.71484 13.5703 5.71289 13.7812 5.71289C13.9922 5.70898 14.1836 5.70508 14.3555 5.70117L12.709 1.98047L11.0918 5.72461H11.7246ZM19.0898 6.70898C19.0898 7.04102 19.0938 7.33203 19.1016 7.58203C19.1133 7.82812 19.125 8.04102 19.1367 8.2207C19.1523 8.40039 19.1699 8.55078 19.1895 8.67188C19.2129 8.79297 19.2363 8.89453 19.2598 8.97656V9H17.8535V8.97656C17.877 8.89453 17.8984 8.79297 17.918 8.67188C17.9414 8.55078 17.9609 8.40039 17.9766 8.2207C17.9922 8.04102 18.0039 7.82812 18.0117 7.58203C18.0195 7.33203 18.0234 7.04102 18.0234 6.70898V2.89453C18.0234 2.5625 18.0195 2.27344 18.0117 2.02734C18.0039 1.77734 17.9922 1.5625 17.9766 1.38281C17.9609 1.19922 17.9414 1.04688 17.918 0.925781C17.8984 0.804687 17.877 0.703125 17.8535 0.621094V0.597656C17.9316 0.605469 18.0137 0.613281 18.0996 0.621094C18.1738 0.628906 18.2559 0.634766 18.3457 0.638672C18.4395 0.638672 18.5352 0.638672 18.6328 0.638672C18.7852 0.638672 18.9902 0.621094 19.248 0.585938C19.5098 0.546875 19.8418 0.527344 20.2441 0.527344C20.6191 0.527344 20.9648 0.578125 21.2812 0.679688C21.6016 0.78125 21.8789 0.929688 22.1133 1.125C22.3477 1.32031 22.5293 1.56055 22.6582 1.8457C22.791 2.12695 22.8574 2.44727 22.8574 2.80664C22.8574 3.08789 22.8203 3.34961 22.7461 3.5918C22.6758 3.83008 22.5742 4.04688 22.4414 4.24219C22.3125 4.4375 22.1562 4.61133 21.9727 4.76367C21.7891 4.91211 21.584 5.03711 21.3574 5.13867L23.4141 8.02734C23.5156 8.17188 23.6094 8.29688 23.6953 8.40234C23.7852 8.50781 23.8691 8.59766 23.9473 8.67188C24.0293 8.74609 24.1074 8.80859 24.1816 8.85938C24.2559 8.90625 24.332 8.94531 24.4102 8.97656V9H22.7168C22.7051 8.92578 22.666 8.82812 22.5996 8.70703C22.5371 8.58203 22.4629 8.45898 22.377 8.33789L20.3027 5.41406C20.1113 5.43359 19.9141 5.44336 19.7109 5.44336C19.5078 5.44336 19.3008 5.42578 19.0898 5.39062V6.70898ZM19.0898 4.93359C19.4727 5.00391 19.8223 5.01367 20.1387 4.96289C20.459 4.91211 20.7324 4.80078 20.959 4.62891C21.1895 4.45703 21.3672 4.22461 21.4922 3.93164C21.6211 3.63477 21.6855 3.27539 21.6855 2.85352C21.6855 2.56055 21.6523 2.29492 21.5859 2.05664C21.5195 1.81836 21.4199 1.61719 21.2871 1.45312C21.1582 1.28516 20.9941 1.15625 20.7949 1.06641C20.5957 0.972656 20.3633 0.925781 20.0977 0.925781C19.9297 0.925781 19.7832 0.933594 19.6582 0.949219C19.5332 0.960938 19.4277 0.974609 19.3418 0.990234C19.2402 1.00977 19.1562 1.03125 19.0898 1.05469V4.93359ZM24.9961 8.97656C25.0195 8.89453 25.041 8.79297 25.0605 8.67188C25.0801 8.55078 25.0977 8.40039 25.1133 8.2207C25.1289 8.04102 25.1406 7.82812 25.1484 7.58203C25.1562 7.33203 25.1602 7.04102 25.1602 6.70898V2.89453C25.1602 2.5625 25.1562 2.27344 25.1484 2.02734C25.1406 1.77734 25.1289 1.5625 25.1133 1.38281C25.0977 1.19922 25.0801 1.04688 25.0605 0.925781C25.041 0.804687 25.0195 0.703125 24.9961 0.621094V0.597656H26.3965V0.621094C26.373 0.703125 26.3496 0.804687 26.3262 0.925781C26.3066 1.04688 26.2891 1.19922 26.2734 1.38281C26.2617 1.5625 26.25 1.77734 26.2383 2.02734C26.2305 2.27344 26.2266 2.5625 26.2266 2.89453V6.70898C26.2266 7.04102 26.2305 7.33203 26.2383 7.58203C26.25 7.82812 26.2617 8.04102 26.2734 8.2207C26.2891 8.40039 26.3066 8.55078 26.3262 8.67188C26.3496 8.79297 26.373 8.89453 26.3965 8.97656V9H24.9961V8.97656ZM31.5527 4.96875V6.70898C31.5527 7.04102 31.5566 7.33203 31.5645 7.58203C31.5723 7.82812 31.584 8.04102 31.5996 8.2207C31.6152 8.40039 31.6328 8.55078 31.6523 8.67188C31.6758 8.79297 31.6992 8.89453 31.7227 8.97656V9H30.3164V8.97656C30.3398 8.89453 30.3613 8.79297 30.3809 8.67188C30.4043 8.55078 30.4219 8.40039 30.4336 8.2207C30.4492 8.04102 30.4609 7.82812 30.4688 7.58203C30.4805 7.33203 30.4863 7.04102 30.4863 6.70898V5.08594L27.8672 1.52344C27.7773 1.40234 27.6875 1.29102 27.5977 1.18945C27.5117 1.08789 27.4297 1 27.3516 0.925781C27.2734 0.847656 27.2031 0.783203 27.1406 0.732422C27.0781 0.681641 27.0293 0.644531 26.9941 0.621094V0.597656H28.7695C28.7695 0.6875 28.8066 0.835938 28.8809 1.04297C28.959 1.24609 29.0977 1.48633 29.2969 1.76367L31.2188 4.39453L33.0996 1.64648C33.166 1.54883 33.2324 1.44922 33.2988 1.34766C33.3652 1.24609 33.4258 1.14844 33.4805 1.05469C33.5352 0.960938 33.5781 0.875 33.6094 0.796875C33.6445 0.71875 33.6621 0.652344 33.6621 0.597656H34.8047V0.621094C34.7188 0.695313 34.6035 0.806641 34.459 0.955078C34.3145 1.09961 34.1582 1.29297 33.9902 1.53516L31.5527 4.96875ZM41.0449 9V8.97656C41.0527 8.95703 41.0586 8.92773 41.0625 8.88867C41.0664 8.84961 41.0684 8.81445 41.0684 8.7832C41.0684 8.66211 41.0508 8.5293 41.0156 8.38477C40.9844 8.23633 40.9219 8.05273 40.8281 7.83398L40.1191 6.24023C39.9004 6.23242 39.6094 6.22852 39.2461 6.22852C38.8828 6.22852 38.4902 6.22852 38.0684 6.22852C37.7598 6.22852 37.4609 6.22852 37.1719 6.22852C36.8867 6.22852 36.6289 6.23242 36.3984 6.24023L35.7246 7.78711C35.666 7.93164 35.6035 8.08984 35.5371 8.26172C35.4707 8.43359 35.4375 8.60742 35.4375 8.7832C35.4375 8.83398 35.4414 8.87695 35.4492 8.91211C35.457 8.94336 35.4648 8.96484 35.4727 8.97656V9H34.2773V8.97656C34.3477 8.90234 34.4355 8.77148 34.541 8.58398C34.6465 8.39258 34.7617 8.1543 34.8867 7.86914L38.2441 0.421875H38.7129L41.8945 7.58203C41.9688 7.75 42.0449 7.91406 42.123 8.07422C42.2051 8.23047 42.2812 8.37109 42.3516 8.49609C42.4219 8.62109 42.4844 8.72656 42.5391 8.8125C42.5938 8.89844 42.6309 8.95312 42.6504 8.97656V9H41.0449ZM37.248 5.72461C37.4746 5.72461 37.707 5.72461 37.9453 5.72461C38.1836 5.7207 38.416 5.71875 38.6426 5.71875C38.873 5.71484 39.0938 5.71289 39.3047 5.71289C39.5156 5.70898 39.707 5.70508 39.8789 5.70117L38.2324 1.98047L36.6152 5.72461H37.248ZM44.6133 8.48438C45.0742 8.48438 45.498 8.46484 45.8848 8.42578C46.2715 8.38672 46.6094 8.3418 46.8984 8.29102C47.2344 8.23633 47.541 8.17188 47.8184 8.09766L47.6484 9.04688C47.6016 9.04297 47.5312 9.03906 47.4375 9.03516C47.3438 9.03125 47.2383 9.02734 47.1211 9.02344C47.0078 9.01953 46.8867 9.01562 46.7578 9.01172C46.6328 9.01172 46.5137 9.00977 46.4004 9.00586C46.2871 9.00586 46.1855 9.00391 46.0957 9C46.0098 9 45.9473 9 45.9082 9H43.377V8.97656C43.4004 8.89453 43.4219 8.79297 43.4414 8.67188C43.4648 8.55078 43.4844 8.40039 43.5 8.2207C43.5156 8.04102 43.5273 7.82812 43.5352 7.58203C43.543 7.33203 43.5469 7.04102 43.5469 6.70898V2.89453C43.5469 2.5625 43.543 2.27344 43.5352 2.02734C43.5273 1.77734 43.5156 1.5625 43.5 1.38281C43.4844 1.19922 43.4648 1.04688 43.4414 0.925781C43.4219 0.804687 43.4004 0.703125 43.377 0.621094V0.597656H44.7832V0.621094C44.7598 0.703125 44.7363 0.804687 44.7129 0.925781C44.6934 1.04688 44.6758 1.19922 44.6602 1.38281C44.6484 1.5625 44.6367 1.77734 44.625 2.02734C44.6172 2.27344 44.6133 2.5625 44.6133 2.89453V8.48438Z" fill="#6CA55E"/>
<path d="M54.3809 1.70508L56.7246 7.39453L59.0039 1.81055C59.0938 1.58008 59.1602 1.38477 59.2031 1.22461C59.2461 1.06445 59.2676 0.927734 59.2676 0.814453C59.2676 0.779297 59.2656 0.744141 59.2617 0.708984C59.2578 0.669922 59.252 0.640625 59.2441 0.621094V0.597656H60.4043V0.621094C60.3262 0.707031 60.2402 0.84375 60.1465 1.03125C60.0566 1.21875 59.9512 1.45117 59.8301 1.72852L56.7012 9.18164H56.2559L53.9766 3.65039L51.8965 9.18164H51.457L48.5859 2.01562C48.5156 1.84766 48.4434 1.68555 48.3691 1.5293C48.2988 1.37305 48.2305 1.23242 48.1641 1.10742C48.1016 0.982422 48.0449 0.876953 47.9941 0.791016C47.9395 0.705078 47.9004 0.648438 47.877 0.621094V0.597656H49.5V0.621094C49.4922 0.664062 49.4883 0.697266 49.4883 0.720703C49.4883 0.744141 49.4883 0.771484 49.4883 0.802734C49.4883 0.935547 49.502 1.07617 49.5293 1.22461C49.5605 1.37305 49.6191 1.55273 49.7051 1.76367L51.9082 7.33008L54.0117 1.72852L54.3809 1.70508ZM66.709 9V8.97656C66.7168 8.95703 66.7227 8.92773 66.7266 8.88867C66.7305 8.84961 66.7324 8.81445 66.7324 8.7832C66.7324 8.66211 66.7148 8.5293 66.6797 8.38477C66.6484 8.23633 66.5859 8.05273 66.4922 7.83398L65.7832 6.24023C65.5645 6.23242 65.2734 6.22852 64.9102 6.22852C64.5469 6.22852 64.1543 6.22852 63.7324 6.22852C63.4238 6.22852 63.125 6.22852 62.8359 6.22852C62.5508 6.22852 62.293 6.23242 62.0625 6.24023L61.3887 7.78711C61.3301 7.93164 61.2676 8.08984 61.2012 8.26172C61.1348 8.43359 61.1016 8.60742 61.1016 8.7832C61.1016 8.83398 61.1055 8.87695 61.1133 8.91211C61.1211 8.94336 61.1289 8.96484 61.1367 8.97656V9H59.9414V8.97656C60.0117 8.90234 60.0996 8.77148 60.2051 8.58398C60.3105 8.39258 60.4258 8.1543 60.5508 7.86914L63.9082 0.421875H64.377L67.5586 7.58203C67.6328 7.75 67.709 7.91406 67.7871 8.07422C67.8691 8.23047 67.9453 8.37109 68.0156 8.49609C68.0859 8.62109 68.1484 8.72656 68.2031 8.8125C68.2578 8.89844 68.2949 8.95312 68.3145 8.97656V9H66.709ZM62.9121 5.72461C63.1387 5.72461 63.3711 5.72461 63.6094 5.72461C63.8477 5.7207 64.0801 5.71875 64.3066 5.71875C64.5371 5.71484 64.7578 5.71289 64.9688 5.71289C65.1797 5.70898 65.3711 5.70508 65.543 5.70117L63.8965 1.98047L62.2793 5.72461H62.9121ZM70.2773 8.48438C70.7383 8.48438 71.1621 8.46484 71.5488 8.42578C71.9355 8.38672 72.2734 8.3418 72.5625 8.29102C72.8984 8.23633 73.2051 8.17188 73.4824 8.09766L73.3125 9.04688C73.2656 9.04297 73.1953 9.03906 73.1016 9.03516C73.0078 9.03125 72.9023 9.02734 72.7852 9.02344C72.6719 9.01953 72.5508 9.01562 72.4219 9.01172C72.2969 9.01172 72.1777 9.00977 72.0645 9.00586C71.9512 9.00586 71.8496 9.00391 71.7598 9C71.6738 9 71.6113 9 71.5723 9H69.041V8.97656C69.0645 8.89453 69.0859 8.79297 69.1055 8.67188C69.1289 8.55078 69.1484 8.40039 69.1641 8.2207C69.1797 8.04102 69.1914 7.82812 69.1992 7.58203C69.207 7.33203 69.2109 7.04102 69.2109 6.70898V2.89453C69.2109 2.5625 69.207 2.27344 69.1992 2.02734C69.1914 1.77734 69.1797 1.5625 69.1641 1.38281C69.1484 1.19922 69.1289 1.04688 69.1055 0.925781C69.0859 0.804687 69.0645 0.703125 69.041 0.621094V0.597656H70.4473V0.621094C70.4238 0.703125 70.4004 0.804687 70.377 0.925781C70.3574 1.04688 70.3398 1.19922 70.3242 1.38281C70.3125 1.5625 70.3008 1.77734 70.2891 2.02734C70.2812 2.27344 70.2773 2.5625 70.2773 2.89453V8.48438ZM80.373 9V8.97656C80.3809 8.95703 80.3867 8.92773 80.3906 8.88867C80.3945 8.84961 80.3965 8.81445 80.3965 8.7832C80.3965 8.66211 80.3789 8.5293 80.3438 8.38477C80.3125 8.23633 80.25 8.05273 80.1562 7.83398L79.4473 6.24023C79.2285 6.23242 78.9375 6.22852 78.5742 6.22852C78.2109 6.22852 77.8184 6.22852 77.3965 6.22852C77.0879 6.22852 76.7891 6.22852 76.5 6.22852C76.2148 6.22852 75.957 6.23242 75.7266 6.24023L75.0527 7.78711C74.9941 7.93164 74.9316 8.08984 74.8652 8.26172C74.7988 8.43359 74.7656 8.60742 74.7656 8.7832C74.7656 8.83398 74.7695 8.87695 74.7773 8.91211C74.7852 8.94336 74.793 8.96484 74.8008 8.97656V9H73.6055V8.97656C73.6758 8.90234 73.7637 8.77148 73.8691 8.58398C73.9746 8.39258 74.0898 8.1543 74.2148 7.86914L77.5723 0.421875H78.041L81.2227 7.58203C81.2969 7.75 81.373 7.91406 81.4512 8.07422C81.5332 8.23047 81.6094 8.37109 81.6797 8.49609C81.75 8.62109 81.8125 8.72656 81.8672 8.8125C81.9219 8.89844 81.959 8.95312 81.9785 8.97656V9H80.373ZM76.5762 5.72461C76.8027 5.72461 77.0352 5.72461 77.2734 5.72461C77.5117 5.7207 77.7441 5.71875 77.9707 5.71875C78.2012 5.71484 78.4219 5.71289 78.6328 5.71289C78.8438 5.70898 79.0352 5.70508 79.207 5.70117L77.5605 1.98047L75.9434 5.72461H76.5762Z" fill="black"/>
</svg>
